<svg xmlns="http://www.w3.org/2000/svg" width="15" height="15" viewBox="0 0 15 15">
                                                                            <g>
                                                                                <path d="M6.84173 14.1066C6.79635 14.1066 6.75147 14.0972 6.7099 14.079C6.66833 14.0609 6.63098 14.0343 6.60018 14.0009L0.0873947 6.95598C0.0439788 6.90901 0.0151968 6.85041 0.00457124 6.78733C-0.00605429 6.72426 0.00193752 6.65946 0.0275687 6.60086C0.0531998 6.54226 0.0953585 6.49241 0.148885 6.4574C0.202411 6.42239 0.264983 6.40374 0.328943 6.40374H3.46384C3.51091 6.40374 3.55743 6.41385 3.60026 6.43336C3.64309 6.45288 3.68124 6.48135 3.71213 6.51686L5.88873 9.02096C6.12396 8.51813 6.57933 7.68089 7.37841 6.66068C8.55974 5.15244 10.7571 2.9343 14.5164 0.931913C14.5891 0.893219 14.6736 0.883176 14.7533 0.903768C14.833 0.92436 14.9021 0.974089 14.947 1.04314C14.9918 1.11218 15.0091 1.19553 14.9955 1.27672C14.9818 1.3579 14.9383 1.43103 14.8733 1.48165C14.859 1.49287 13.4095 2.63433 11.7413 4.7251C10.2061 6.64913 8.16519 9.79521 7.16094 13.8568C7.1433 13.9281 7.10227 13.9915 7.04439 14.0368C6.98652 14.0821 6.91513 14.1068 6.84163 14.1068L6.84173 14.1066Z"></path>
                                                                            </g>
                                                                        </svg>