<svg xmlns="http://www.w3.org/2000/svg" width="70" height="70" viewBox="0 0 70 70"><path d="M36.6194 51.9652C36.7361 52.1901 36.7585 52.4521 36.682 52.6937C36.6054 52.9352 36.436 53.1364 36.2111 53.253C35.3714 53.6877 34.5025 54.0631 33.6105 54.3766L32.1122 61.0047C32.0644 61.2162 31.9462 61.405 31.7769 61.5404C31.6076 61.6757 31.3972 61.7494 31.1805 61.7494H22.4587C22.2419 61.7494 22.0316 61.6757 21.8623 61.5404C21.6929 61.405 21.5747 61.2162 21.5269 61.0047L20.0286 54.3766C19.3097 54.1237 18.6054 53.831 17.9189 53.5L12.1738 57.127C11.9906 57.2425 11.7734 57.2924 11.5581 57.2684C11.3427 57.2444 11.1419 57.1479 10.9886 56.9948L4.81961 50.8297C4.66618 50.6764 4.56949 50.4755 4.54544 50.2599C4.52139 50.0443 4.5714 49.827 4.68727 49.6437L8.3177 43.8988C7.98684 43.2124 7.69427 42.5082 7.44133 41.7895L0.813066 40.291C0.601641 40.2432 0.412749 40.125 0.277418 39.9557C0.142088 39.7863 0.0683647 39.576 0.0683594 39.3593V30.6373C0.0683647 30.4205 0.142088 30.2102 0.277418 30.0409C0.412749 29.8716 0.601641 29.7533 0.813066 29.7056L7.44119 28.2071C7.69398 27.4891 7.98558 26.7853 8.31469 26.0989L4.68686 20.3525C4.57111 20.1692 4.52118 19.9519 4.54528 19.7364C4.56938 19.521 4.66608 19.3201 4.81947 19.1669L10.9885 13.0017C11.1417 12.8484 11.3425 12.7519 11.5579 12.7278C11.7733 12.7038 11.9905 12.7538 12.1737 12.8695L17.9188 16.4965C18.6051 16.1655 19.3096 15.8736 20.0289 15.6222L21.5269 8.99568C21.5747 8.78426 21.6929 8.59537 21.8623 8.46004C22.0316 8.3247 22.2419 8.25098 22.4587 8.25098H31.1805C31.3972 8.25098 31.6076 8.3247 31.7769 8.46004C31.9462 8.59537 32.0644 8.78426 32.1122 8.99568L33.6103 15.6222C34.3287 15.8731 35.0322 16.1649 35.7174 16.4961L41.4656 12.8693C41.6489 12.7537 41.8661 12.7038 42.0815 12.7279C42.2968 12.752 42.4977 12.8486 42.6509 13.0018L48.816 19.167C48.9692 19.3203 49.0658 19.5211 49.0898 19.7365C49.1139 19.9519 49.0641 20.169 48.9485 20.3524L45.3217 26.1006C45.653 26.7857 45.9447 27.4891 46.1956 28.2075L47.9988 28.615C48.1212 28.6426 48.2369 28.6941 48.3394 28.7664C48.4419 28.8388 48.5291 28.9306 48.5961 29.0367C48.663 29.1428 48.7085 29.261 48.7298 29.3846C48.7511 29.5083 48.7478 29.6349 48.7201 29.7572C48.6039 30.272 48.0918 30.5957 47.5779 30.4786L45.2495 29.9525C45.087 29.9158 44.9369 29.8372 44.8141 29.7245C44.6914 29.6119 44.6002 29.4691 44.5497 29.3103C44.2399 28.3374 43.848 27.3926 43.3781 26.4861C43.3014 26.3381 43.2647 26.1726 43.2717 26.006C43.2787 25.8394 43.3292 25.6776 43.4182 25.5366L46.925 19.9783L41.8394 14.8925L36.2809 18.3995C36.1399 18.4884 35.9781 18.5389 35.8116 18.5459C35.645 18.553 35.4795 18.5163 35.3315 18.4395C34.4249 17.9699 33.48 17.5779 32.5071 17.268C32.3484 17.2174 32.2056 17.1263 32.093 17.0035C31.9804 16.8808 31.9019 16.7307 31.8652 16.5683L30.4168 10.1615H23.222L21.7736 16.5683C21.7368 16.7307 21.6583 16.8808 21.5457 17.0035C21.4331 17.1263 21.2904 17.2174 21.1317 17.268C20.1572 17.5788 19.2106 17.9709 18.3019 18.4404C18.1539 18.5167 17.9886 18.553 17.8223 18.5458C17.6559 18.5386 17.4944 18.4881 17.3536 18.3993L11.799 14.8925L6.71016 19.9783L10.2166 25.5326C10.3052 25.673 10.3557 25.834 10.3631 25.9998C10.3706 26.1656 10.3347 26.3305 10.259 26.4782C9.79168 27.3902 9.39879 28.3385 9.08414 29.3137C9.03324 29.4717 8.94203 29.6137 8.81952 29.7257C8.69701 29.8378 8.54742 29.9159 8.38551 29.9525L1.97887 31.401V38.5957L8.38551 40.0441C8.5474 40.0807 8.69696 40.1589 8.81947 40.2709C8.94197 40.3829 9.03319 40.5249 9.08414 40.6829C9.39822 41.6579 9.79202 42.6054 10.2616 43.5158C10.3379 43.6638 10.3743 43.8292 10.367 43.9956C10.3598 44.1619 10.3092 44.3236 10.2203 44.4644L6.71043 50.0184L11.799 55.1039L17.3536 51.5971C17.4944 51.5083 17.6559 51.4577 17.8223 51.4505C17.9886 51.4433 18.1539 51.4797 18.3019 51.5561C19.2122 52.0256 20.1597 52.4194 21.1347 52.7335C21.2927 52.7844 21.4347 52.8756 21.5468 52.9981C21.6588 53.1206 21.737 53.2702 21.7736 53.4321L23.222 59.8388H30.4168L31.8652 53.4321C31.9017 53.2702 31.9799 53.1206 32.0919 52.9981C32.204 52.8756 32.346 52.7844 32.5041 52.7335C33.4775 52.4204 34.4232 52.0269 35.3314 51.5569C35.4428 51.4991 35.5644 51.4638 35.6895 51.4531C35.8145 51.4423 35.9404 51.4563 36.06 51.4942C36.1796 51.5321 36.2906 51.5932 36.3866 51.674C36.4826 51.7548 36.5617 51.8538 36.6194 51.9652ZM40.9659 35C40.9659 41.5569 36.4822 47.0857 30.4199 48.6829C30.2881 48.7509 30.1423 48.7871 29.994 48.7886C28.9522 49.0282 27.8866 49.1488 26.8177 49.1483C25.7254 49.1483 24.6617 49.0238 23.64 48.7884C23.6344 48.7885 23.629 48.7892 23.6234 48.7892C23.4596 48.7893 23.2985 48.7471 23.1558 48.6668C17.1239 47.049 12.6695 41.5354 12.6695 35.0001C12.6695 27.1988 19.0163 20.8519 26.8178 20.8519C34.6192 20.8519 40.9659 27.1987 40.9659 35ZM26.8177 47.2376C27.5714 47.2376 28.3093 47.1687 29.0255 47.0375V42.2822C29.0256 42.095 29.0804 41.912 29.1834 41.7556C29.2864 41.5993 29.4329 41.4766 29.6048 41.4027C30.8817 40.8551 31.9697 39.9448 32.7341 38.7846C33.4984 37.6244 33.9055 36.2655 33.9047 34.8761C33.9054 33.7473 33.6368 32.6346 33.1212 31.6304C32.6056 30.6262 31.8578 29.7596 30.94 29.1024V35.225C30.94 35.4789 30.8391 35.7224 30.6596 35.902C30.4801 36.0815 30.2366 36.1823 29.9827 36.1823H23.6231C23.3692 36.1823 23.1257 36.0815 22.9462 35.902C22.7666 35.7224 22.6658 35.4789 22.6658 35.225V29.1015C21.7478 29.7587 20.9998 30.6255 20.4842 31.6299C19.9685 32.6342 19.7001 33.7471 19.701 34.8761C19.6998 36.2655 20.1066 37.6246 20.8709 38.7847C21.6352 39.9449 22.7234 40.8552 24.0004 41.4024C24.1725 41.4763 24.3192 41.599 24.4223 41.7553C24.5253 41.9117 24.5803 42.0949 24.5803 42.2822V47.0319C25.3182 47.1688 26.0671 47.2376 26.8177 47.2376ZM39.0551 35C39.0551 28.2522 33.5654 22.7626 26.8177 22.7626C20.0699 22.7626 14.5801 28.2522 14.5801 35C14.5801 40.291 17.9555 44.8079 22.6661 46.5119V42.8883C21.1951 42.1299 19.9616 40.981 19.1009 39.5676C18.2402 38.1541 17.7855 36.5309 17.7868 34.876C17.7854 33.112 18.3019 31.3865 19.2724 29.9135C20.2429 28.4405 21.6246 27.285 23.246 26.5903C23.3916 26.5278 23.5505 26.5025 23.7083 26.5166C23.8661 26.5306 24.0179 26.5836 24.1502 26.6708C24.2825 26.758 24.3911 26.8767 24.4662 27.0162C24.5413 27.1557 24.5807 27.3116 24.5807 27.4701V34.2677H29.0257V27.4701C29.0257 27.3116 29.0651 27.1556 29.1403 27.0161C29.2154 26.8766 29.3241 26.7579 29.4564 26.6708C29.5888 26.5836 29.7407 26.5306 29.8985 26.5166C30.0564 26.5026 30.2152 26.528 30.3609 26.5906C31.9818 27.2857 33.3631 28.4414 34.3335 29.9143C35.3038 31.3871 35.8205 33.1124 35.8195 34.8761C35.8204 36.5309 35.3656 38.154 34.5049 39.5673C33.6443 40.9807 32.4109 42.1297 30.9403 42.8883V46.5224C35.6657 44.8264 39.0551 40.302 39.0551 35ZM69.3392 23.1898L51.4121 54.2402C51.338 54.3686 51.2349 54.478 51.1111 54.5597L40.4595 61.5911C40.3114 61.6889 40.139 61.7436 39.9617 61.749C39.7843 61.7543 39.609 61.7102 39.4553 61.6214C39.3016 61.5327 39.1757 61.4029 39.0916 61.2466C39.0076 61.0904 38.9688 60.9137 38.9795 60.7366L39.7451 47.9963C39.754 47.8483 39.7972 47.7044 39.8714 47.5759L57.7985 16.5257C59.0193 14.4104 61.7336 13.6825 63.849 14.9034L67.7173 17.1395C69.8325 18.3604 70.5601 21.0744 69.3392 23.1898ZM48.7683 53.817L41.5596 49.6539L41.0014 58.9441L48.7683 53.817ZM65.3837 26.2195L57.1519 21.4673L42.0038 47.7039L50.2351 52.4576L65.3837 26.2195ZM66.7617 18.794L66.7611 18.7936L62.8935 16.558C61.6909 15.8642 60.1474 16.2779 59.4532 17.481L58.1071 19.8126L66.3388 24.5648L67.6843 22.2346C68.3786 21.0317 67.9648 19.4882 66.7617 18.794Z"></path></svg>