<svg xmlns="http://www.w3.org/2000/svg" width="55" height="55" viewBox="0 0 55 55"><g><path fill-rule="evenodd" clip-rule="evenodd" d="M45.4416 6.50406C45.5555 6.50389 45.6646 6.45861 45.7452 6.37814C45.8258 6.29767 45.8712 6.18856 45.8715 6.07469C45.8714 5.96071 45.826 5.85143 45.7454 5.77083C45.6648 5.69023 45.5556 5.6449 45.4416 5.64479H33.566C33.4521 5.6449 33.3428 5.69025 33.2623 5.77086C33.1818 5.85148 33.1366 5.96076 33.1366 6.07469C33.1368 6.18851 33.1821 6.2976 33.2626 6.37808C33.3431 6.45856 33.4522 6.50386 33.566 6.50406H45.4416ZM45.4416 8.99506H33.566C33.4521 8.99535 33.343 9.04075 33.2625 9.12133C33.182 9.2019 33.1368 9.31108 33.1366 9.42497C33.1366 9.48139 33.1477 9.53727 33.1692 9.58941C33.1908 9.64155 33.2224 9.68894 33.2623 9.72886C33.3021 9.76878 33.3495 9.80045 33.4016 9.82208C33.4537 9.8437 33.5096 9.85484 33.566 9.85487H45.4416C45.5556 9.85484 45.6649 9.80954 45.7455 9.72892C45.8262 9.64831 45.8715 9.53897 45.8715 9.42497C45.8712 9.31103 45.8259 9.20183 45.7453 9.12126C45.6647 9.04069 45.5555 8.99532 45.4416 8.99506ZM45.0425 50.435L36.5059 52.7849C35.5474 53.0489 34.5422 52.48 34.2769 51.5215C34.0106 50.5596 34.5788 49.5569 35.5412 49.292L43.1978 47.184L45.6401 38.1835C45.702 37.9557 45.565 37.7176 45.3372 37.656C45.109 37.5942 44.8713 37.7297 44.8094 37.958L42.3215 47.1332L41.4114 43.7376C41.4081 43.727 41.4053 43.7163 41.4031 43.7054L41.1032 42.5885C41.0421 42.3605 40.805 42.2232 40.577 42.2845C40.467 42.3143 40.3734 42.3865 40.3165 42.4853C40.2596 42.584 40.2442 42.7013 40.2735 42.8114L40.5367 43.7937L39.0302 47.0632C38.9673 47.1988 38.8879 47.3261 38.7937 47.4421L38.7285 47.5228L36.0664 48.256L28.609 49.0179L28.9002 48.4815C29.1229 48.07 29.2335 47.6071 29.2208 47.1394C29.2082 46.6716 29.0727 46.2155 28.828 45.8166L28.5593 45.3794L35.9215 44.6277C35.9958 44.6201 36.0668 44.5934 36.1276 44.5501C36.1884 44.5068 36.2368 44.4484 36.2682 44.3807L39.6296 37.0866C40.4673 35.2688 41.3366 33.3211 43.4556 32.7532C44.6941 32.4213 45.9986 32.5988 47.1086 33.2399C48.2216 33.8827 49.0231 34.9176 49.3559 36.1596L52.646 48.4391C52.7862 48.9623 52.8517 49.4542 52.8517 49.996V52.8517H43.2567V51.8184L45.2449 51.2707L45.2531 51.2689C46.23 51.0538 46.9986 50.3257 47.2607 49.3596L48.8226 43.6017C48.8521 43.4918 48.837 43.3746 48.7804 43.2759C48.7239 43.1771 48.6306 43.1047 48.5208 43.0745C48.293 43.0126 48.0552 43.1494 47.9934 43.3772L46.4324 49.133C46.2534 49.7935 45.7227 50.2895 45.0544 50.4324L45.0425 50.435ZM13.5329 29.6923C11.1285 29.6923 9.17188 27.7357 9.17188 25.3312C9.17188 22.9266 11.1281 20.9697 13.5329 20.9697C15.9378 20.9697 17.8944 22.9262 17.8944 25.3312C17.8944 27.736 15.9376 29.6923 13.5329 29.6923ZM40.1972 13.3512H31.0881C30.7587 13.3512 30.4742 13.1425 30.2882 12.8848C30.0706 12.5833 29.9708 12.2056 29.9708 11.8366V3.66307C29.9708 3.29408 30.0707 2.91627 30.2882 2.61474C30.4742 2.35704 30.7587 2.14832 31.0881 2.14832H47.9189C48.2485 2.14832 48.5333 2.35671 48.7197 2.61463C48.9374 2.91617 49.0373 3.29397 49.0373 3.66307V11.8366C49.0373 12.2057 48.9374 12.5835 48.7197 12.885C48.5334 13.1429 48.2486 13.3513 47.9189 13.3513H46.5738C46.5092 13.3515 46.4455 13.3662 46.3874 13.3943C46.3292 13.4225 46.2782 13.4633 46.238 13.5139C46.1978 13.5644 46.1694 13.6234 46.1551 13.6864C46.1408 13.7493 46.1408 13.8147 46.1552 13.8777L47.1343 18.0971L40.4434 13.4288C40.3713 13.3781 40.2853 13.351 40.1972 13.3512Z" fill-opacity="0.2"></path><path fill-rule="evenodd" clip-rule="evenodd" d="M45.5058 25.3313C45.5058 27.5579 43.6937 29.37 41.4671 29.37C39.2399 29.37 37.4278 27.5579 37.4278 25.3313C37.4278 23.1041 39.2399 21.292 41.4671 21.292C43.6936 21.292 45.5058 23.1041 45.5058 25.3313ZM35.924 25.3313C35.924 28.3874 38.4109 30.8743 41.4671 30.8743C44.5233 30.8743 47.0102 28.3874 47.0102 25.3313C47.0102 22.2747 44.5233 19.7882 41.4671 19.7882C38.4109 19.7882 35.924 22.2747 35.924 25.3313ZM17.5722 25.3313C17.5722 27.5579 15.7601 29.37 13.5329 29.37C11.3063 29.37 9.49416 27.5579 9.49416 25.3313C9.49416 23.1041 11.3063 21.292 13.5329 21.292C15.7601 21.292 17.5722 23.1041 17.5722 25.3313ZM7.98993 25.3313C7.98993 28.3874 10.4769 30.8743 13.533 30.8743C16.5892 30.8743 19.0761 28.3874 19.0761 25.3313C19.0761 22.2747 16.5892 19.7882 13.533 19.7882C10.4769 19.7882 7.98993 22.2747 7.98993 25.3313ZM40.498 46.7018L40.8043 46.0376L40.9493 46.5769L40.498 46.7018ZM52.5294 52.5294V49.996C52.5294 49.4708 52.4713 49.0305 52.3348 48.5225L49.0446 36.243C48.7363 35.088 47.9907 34.1215 46.9474 33.519C45.9036 32.9159 44.6931 32.7552 43.5391 33.0646C41.596 33.5852 40.7827 35.3514 39.9224 37.2216L36.5609 44.5156C36.5061 44.6342 36.4213 44.7365 36.315 44.8124C36.2086 44.8882 36.0843 44.9351 35.9543 44.9483L29.1025 45.6479C29.4452 46.2054 29.5959 46.8565 29.5281 47.5191C29.4878 47.9102 29.3707 48.2896 29.1834 48.6353L36.0068 47.9382L38.5429 47.2396C38.6191 47.1451 38.6858 47.041 38.7375 46.9282L40.1953 43.7644L39.9623 42.8945C39.9108 42.7019 39.9377 42.4966 40.0374 42.3239C40.137 42.1511 40.3011 42.0249 40.4936 41.9731C40.8945 41.8664 41.3069 42.104 41.4146 42.5048L41.7184 43.6366C41.7184 43.6381 41.7184 43.6401 41.7193 43.6411L42.3234 45.895L44.4984 37.8736C44.5509 37.6812 44.6776 37.5175 44.8506 37.4184C45.0236 37.3193 45.2289 37.2929 45.4214 37.3449C45.6139 37.3973 45.7777 37.5239 45.877 37.6969C45.9763 37.8699 46.0029 38.0752 45.9511 38.2679L43.4606 47.4458L35.6268 49.6027C34.8347 49.8221 34.3687 50.6439 34.5875 51.4355C34.8068 52.2271 35.6298 52.6937 36.4203 52.4743L44.9659 50.1219L44.9872 50.1174C45.2564 50.0611 45.5048 49.9315 45.705 49.7429C45.9051 49.5543 46.0493 49.3141 46.1215 49.0487L47.6824 43.2928C47.7911 42.8925 48.2046 42.6549 48.6054 42.7636C48.7977 42.8159 48.9614 42.9425 49.0604 43.1155C49.1595 43.2884 49.1858 43.4936 49.1336 43.686L47.5717 49.4439C47.2765 50.5266 46.4152 51.343 45.3223 51.5837L43.5789 52.0638V52.5294H52.5294ZM26.3968 48.6943L17.603 47.7961L17.557 47.7931C17.2826 47.7824 17.0165 47.696 16.788 47.5436C16.5596 47.3911 16.3777 47.1785 16.2625 46.9292L14.6909 43.5187C14.6261 43.3784 14.5197 43.2615 14.3861 43.1836C14.2526 43.1057 14.0984 43.0708 13.9443 43.0835C13.7901 43.0966 13.6437 43.157 13.5251 43.2564C13.4065 43.3559 13.3215 43.4895 13.2816 43.6391L11.4468 50.4847C11.4296 50.5484 11.421 50.6136 11.421 50.6794V52.5294H2.4706V49.996C2.4706 49.4708 2.52871 49.0305 2.66524 48.5225L5.95536 36.243C6.26474 35.088 7.00928 34.1215 8.05363 33.519C9.09638 32.9159 10.3061 32.7552 11.4611 33.0646C12.7854 33.4189 13.806 34.4607 14.6729 36.3431L18.4392 44.5156C18.4941 44.6343 18.5789 44.7366 18.6854 44.8125C18.7918 44.8884 18.9163 44.9352 19.0463 44.9483L26.7033 45.7293C27.5206 45.8141 28.117 46.5482 28.0322 47.3645C27.9481 48.1818 27.2121 48.7777 26.3968 48.6943ZM53.7885 48.1333L50.4978 35.8538C50.0844 34.3115 49.0906 33.019 47.6995 32.2169C46.3074 31.4132 44.6919 31.1983 43.1502 31.6118C40.5247 32.3154 39.4784 34.5876 38.5559 36.5933L35.3749 43.4961L28.1436 44.2341C27.9257 44.2572 27.7109 44.304 27.5031 44.3736C27.2933 44.3038 27.0766 44.257 26.8567 44.2341L19.6258 43.4961L16.0389 35.7133C15.3667 34.2534 14.2 32.2416 11.8496 31.6118C10.3084 31.1983 8.69236 31.4132 7.30136 32.2169C5.90928 33.0191 4.91552 34.3116 4.50205 35.8538L1.21204 48.1333C1.0421 48.7661 0.966797 49.3409 0.966797 49.996V53.281C0.966698 53.3798 0.986086 53.4777 1.02385 53.569C1.06162 53.6603 1.11702 53.7433 1.18688 53.8131C1.25675 53.883 1.3397 53.9384 1.43101 53.9761C1.52231 54.0139 1.62016 54.0333 1.71897 54.0332H12.1733C12.272 54.0333 12.3698 54.0138 12.4611 53.9761C12.5523 53.9383 12.6352 53.8829 12.7051 53.813C12.7749 53.7431 12.8302 53.6602 12.8679 53.5689C12.9057 53.4776 12.925 53.3798 12.9249 53.281V50.7779L14.1957 46.0376L14.8983 47.561C15.369 48.577 16.3532 49.2397 17.4712 49.2948L26.2433 50.1895C26.6805 50.2346 27.1061 50.1819 27.4979 50.0496C27.9023 50.1862 28.3314 50.234 28.756 50.1895L33.3376 49.7219C33.0262 50.3568 32.9358 51.1024 33.1375 51.8363C33.505 53.1617 34.7126 54.0331 36.0242 54.0331C36.2875 54.0331 36.555 53.9978 36.8214 53.9244L42.0753 52.4777V53.2809C42.0752 53.3797 42.0945 53.4775 42.1323 53.5688C42.17 53.6601 42.2253 53.743 42.2952 53.8129C42.365 53.8827 42.4479 53.9382 42.5391 53.9759C42.6304 54.0137 42.7282 54.0331 42.827 54.0331H53.2817C53.3804 54.0331 53.4783 54.0137 53.5695 53.9759C53.6608 53.9382 53.7437 53.8827 53.8135 53.8129C53.8833 53.743 53.9386 53.6601 53.9764 53.5688C54.0141 53.4775 54.0334 53.3797 54.0333 53.2809V49.9959C54.0332 49.3409 53.9583 48.7661 53.7885 48.1333ZM19.1048 7.86103C19.1048 7.32725 19.538 6.89401 20.0718 6.89401C20.6056 6.89401 21.0388 7.32725 21.0388 7.86103C21.0388 8.3948 20.6057 8.82804 20.0718 8.82804C19.538 8.82793 19.1048 8.3948 19.1048 7.86103ZM14.5298 7.86103C14.5298 7.32725 14.963 6.89401 15.4967 6.89401C16.0305 6.89401 16.4637 7.32725 16.4637 7.86103C16.4637 8.3948 16.0305 8.82804 15.4967 8.82804C14.9629 8.82793 14.5298 8.3948 14.5298 7.86103ZM9.95468 7.86103C9.95464 7.73402 9.97962 7.60826 10.0282 7.49092C10.0768 7.37357 10.148 7.26695 10.2378 7.17715C10.3276 7.08735 10.4342 7.01612 10.5516 6.96754C10.6689 6.91895 10.7947 6.89397 10.9217 6.89401C11.4555 6.89401 11.8882 7.32725 11.8882 7.86103C11.8882 8.3948 11.4555 8.82804 10.9217 8.82804C10.7947 8.82807 10.6689 8.80307 10.5516 8.75449C10.4343 8.7059 10.3276 8.63467 10.2378 8.54487C10.148 8.45507 10.0768 8.34845 10.0282 8.23112C9.97964 8.11378 9.95465 7.98802 9.95468 7.86103ZM6.28547 3.66309V11.8366C6.28547 12.5392 6.70549 13.029 7.08114 13.029H8.42617C8.5394 13.0292 8.65113 13.0548 8.75307 13.1041C8.85502 13.1534 8.94456 13.2249 9.01506 13.3135C9.08545 13.402 9.13492 13.5053 9.15978 13.6156C9.18463 13.7259 9.18422 13.8403 9.15857 13.9504L8.36956 17.3528L14.3721 13.1644C14.4984 13.0763 14.6487 13.0291 14.8027 13.029H23.9124C24.288 13.029 24.707 12.5391 24.707 11.8366V3.66309C24.707 2.96044 24.288 2.4706 23.9124 2.4706H7.08104C6.70549 2.4706 6.28547 2.96044 6.28547 3.66309ZM7.08104 14.5328C5.81378 14.5328 4.78156 13.3232 4.78156 11.8366V3.66309C4.78167 2.17637 5.81378 0.966797 7.08104 0.966797H23.9123C25.1796 0.966797 26.2107 2.17637 26.2107 3.66298V11.8365C26.2107 13.3231 25.1796 14.5327 23.9123 14.5327H15.0392L7.62491 19.7062C7.4986 19.7944 7.34829 19.8416 7.19426 19.8417C7.0472 19.8417 6.8996 19.7987 6.77316 19.7118C6.64705 19.6267 6.54972 19.5053 6.49404 19.3637C6.43836 19.2221 6.42695 19.0669 6.46132 18.9187L7.47989 14.5327H7.08104V14.5328ZM32.8143 9.42498C32.8143 9.01044 33.1515 8.67281 33.5659 8.67281H45.4416C45.8561 8.67281 46.1938 9.01044 46.1938 9.42498C46.1937 9.62446 46.1145 9.81576 45.9734 9.95681C45.8324 10.0979 45.6411 10.1771 45.4416 10.1771H33.566C33.3666 10.1771 33.1754 10.0978 33.0344 9.95672C32.8934 9.81567 32.8142 9.6244 32.8143 9.42498ZM32.8143 6.0746C32.8143 5.87521 32.8935 5.684 33.0344 5.54296C33.1754 5.40192 33.3665 5.3226 33.5659 5.32243H45.4416C45.641 5.32257 45.8323 5.40187 45.9733 5.54289C46.1143 5.68392 46.1936 5.87516 46.1938 6.0746C46.1938 6.48914 45.8561 6.82623 45.4416 6.82623H33.566C33.3667 6.82606 33.1756 6.74682 33.0347 6.6059C32.8937 6.46498 32.8145 6.2739 32.8143 6.0746ZM30.293 3.66309V11.8366C30.293 12.5392 30.712 13.029 31.0881 13.029H40.1973C40.352 13.029 40.5011 13.0765 40.6279 13.1644L46.631 17.3528L45.8414 13.9504C45.8159 13.8403 45.8156 13.7258 45.8405 13.6155C45.8655 13.5052 45.915 13.402 45.9855 13.3135C46.0558 13.2249 46.1453 13.1533 46.2471 13.104C46.349 13.0548 46.4607 13.0291 46.5738 13.029H47.919C48.296 13.029 48.7151 12.5391 48.7151 11.8366V3.66309C48.7151 2.96044 48.296 2.4706 47.919 2.4706H31.0881C30.712 2.4706 30.293 2.96044 30.293 3.66309ZM31.0881 14.5328C29.8204 14.5328 28.7892 13.3232 28.7892 11.8366V3.66309C28.7892 2.17637 29.8204 0.966797 31.0881 0.966797H47.919C49.1877 0.966797 50.2189 2.17637 50.2189 3.66298V11.8365C50.2189 13.3231 49.1877 14.5327 47.919 14.5327H47.5201L48.5387 18.9187C48.573 19.0669 48.5617 19.222 48.5061 19.3636C48.4505 19.5051 48.3533 19.6266 48.2274 19.7118C48.1032 19.7967 47.9563 19.842 47.8058 19.8417C47.652 19.8416 47.5019 19.7944 47.3757 19.7062L39.9614 14.5327H31.0881V14.5328Z"></path></g></svg>