<svg xmlns="http://www.w3.org/2000/svg" width="55" height="55" viewBox="0 0 55 55"><path d="M54.3702 18.9006C54.2875 18.9006 54.2056 18.9169 54.1292 18.9485C54.0528 18.9802 53.9833 19.0266 53.9249 19.0851C53.8664 19.1436 53.82 19.213 53.7883 19.2894C53.7567 19.3658 53.7404 19.4477 53.7404 19.5304V45.6113C53.7404 46.8961 52.6951 47.9414 51.4103 47.9414H3.58987C2.30488 47.9414 1.25959 46.8961 1.25959 45.6113V19.5304C1.25959 19.1826 0.977746 18.9006 0.629793 18.9006C0.281839 18.9006 0 19.1825 0 19.5304V45.6113C0 47.5906 1.61029 49.201 3.58976 49.201H51.4102C53.3895 49.201 54.9999 47.5907 54.9999 45.6113V19.5304C54.9999 19.4477 54.9837 19.3658 54.952 19.2894C54.9204 19.213 54.874 19.1436 54.8155 19.0851C54.7571 19.0266 54.6876 18.9802 54.6112 18.9485C54.5348 18.9169 54.4529 18.9006 54.3702 18.9006Z"></path><path d="M51.4124 5.79907H3.58778C1.60952 5.79907 9.61189e-09 7.40837 9.61189e-09 9.38664V17.013C-1.44413e-05 17.0957 0.0162658 17.1776 0.0479107 17.254C0.0795556 17.3305 0.125945 17.3999 0.18443 17.4584C0.242914 17.5169 0.312348 17.5633 0.388764 17.5949C0.465181 17.6265 0.547083 17.6428 0.629793 17.6428H8.46992C8.55613 17.6428 8.64143 17.6251 8.72053 17.5908C8.79962 17.5565 8.87083 17.5063 8.92975 17.4434C10.1502 16.283 10.4537 15.4155 11.4718 15.4155H20.2244C21.305 15.4155 21.5883 16.3785 22.5783 17.4147C22.6373 17.486 22.7114 17.5435 22.7953 17.5829C22.8791 17.6224 22.9706 17.6428 23.0633 17.6428H54.3702C54.4529 17.6428 54.5348 17.6265 54.6112 17.5949C54.6876 17.5633 54.7571 17.5169 54.8156 17.4584C54.8741 17.3999 54.9204 17.3305 54.9521 17.254C54.9837 17.1776 55 17.0957 55 17.013V9.38664C55 7.40837 53.3907 5.79907 51.4124 5.79907ZM53.7404 16.3832H23.3595C22.6742 15.7237 22.0415 14.1559 20.2244 14.1559H11.4718C9.73819 14.1559 9.12798 15.5599 8.19688 16.3832H1.25959V9.38664C1.25959 8.10296 2.30411 7.05866 3.58778 7.05866H51.4124C52.6961 7.05866 53.7404 8.10296 53.7404 9.38664V16.3832Z"></path><path d="M34.6897 9.56772C33.4139 9.56772 32.3762 10.6056 32.3762 11.8814C32.3762 13.1572 33.4139 14.1949 34.6897 14.1949C35.9654 14.1949 37.0034 13.1572 37.0034 11.8814C37.0034 10.6056 35.9654 9.56772 34.6897 9.56772ZM34.6897 12.9353C34.1085 12.9353 33.6358 12.4626 33.6358 11.8814C33.6358 11.3002 34.1085 10.8273 34.6897 10.8273C35.2708 10.8273 35.7438 11.3002 35.7438 11.8814C35.7439 12.4626 35.2708 12.9353 34.6897 12.9353ZM41.2648 9.40733C39.9891 9.40733 38.9511 10.4452 38.9511 11.721C38.9511 12.9968 39.9891 14.0345 41.2648 14.0345C42.5406 14.0345 43.5785 12.9968 43.5785 11.721C43.5785 10.4452 42.5405 9.40733 41.2648 9.40733ZM41.2648 12.775C40.6837 12.775 40.2107 12.3023 40.2107 11.7211C40.2107 11.1399 40.6837 10.667 41.2648 10.667C41.846 10.667 42.3189 11.1399 42.3189 11.7211C42.3189 12.3023 41.846 12.775 41.2648 12.775ZM47.8399 9.24683C46.5641 9.24683 45.5262 10.2847 45.5262 11.5605C45.5262 12.8363 46.5641 13.8742 47.8399 13.8742C49.1156 13.8742 50.1535 12.8363 50.1535 11.5605C50.1535 10.2847 49.1156 9.24683 47.8399 9.24683ZM47.8399 12.6146C47.2587 12.6146 46.7858 12.1417 46.7858 11.5605C46.7858 10.9793 47.2587 10.5064 47.8399 10.5064C48.421 10.5064 48.894 10.9793 48.894 11.5605C48.894 12.1417 48.421 12.6146 47.8399 12.6146Z"></path><path d="M20.6895 20.8789C20.4689 20.6894 20.2098 20.5499 19.9301 20.47C19.6505 20.3902 19.3568 20.3718 19.0693 20.4162L17.0567 20.7258C16.9749 20.7383 16.8965 20.7669 16.8257 20.8097C16.755 20.8526 16.6935 20.909 16.6446 20.9757C16.5957 21.0424 16.5604 21.1181 16.5407 21.1984C16.5211 21.2787 16.5175 21.3621 16.53 21.4439C16.5827 21.7877 16.905 22.0243 17.2482 21.9705L19.2609 21.6609C19.3689 21.6437 19.4793 21.6504 19.5845 21.6804C19.6896 21.7104 19.7869 21.7631 19.8695 21.8347C19.953 21.9054 20.0199 21.9935 20.0656 22.0929C20.1112 22.1922 20.1345 22.3004 20.1338 22.4097V35.7931C20.1338 37.3274 21.382 38.5757 22.9165 38.5757H37.8477C37.9304 38.5757 38.0123 38.5594 38.0888 38.5278C38.1652 38.4961 38.2346 38.4497 38.2931 38.3912C38.3516 38.3328 38.398 38.2633 38.4296 38.1869C38.4613 38.1105 38.4775 38.0286 38.4775 37.9459C38.4775 37.8632 38.4613 37.7813 38.4296 37.7049C38.398 37.6284 38.3516 37.559 38.2931 37.5005C38.2346 37.442 38.1652 37.3956 38.0888 37.364C38.0123 37.3324 37.9304 37.3161 37.8477 37.3161H22.9165C22.1366 37.3161 21.4992 36.7247 21.4111 35.9682H33.5009C34.9661 35.9682 36.2541 34.9288 36.5636 33.4966L38.0599 26.5733C38.3523 25.2196 37.3204 23.9444 35.9383 23.9444H21.3934V22.4097C21.3935 22.1189 21.3307 21.8315 21.2092 21.5672C21.0877 21.3029 20.9104 21.0681 20.6895 20.8789ZM35.9383 25.204C36.5192 25.204 36.9516 25.7406 36.8286 26.3074L35.3323 33.2307C35.1472 34.0873 34.377 34.7088 33.5008 34.7088H21.3934V25.204H35.9383ZM22.7036 41.4381C22.7036 42.6362 23.6802 43.6107 24.8807 43.6107C26.0788 43.6107 27.0534 42.6362 27.0534 41.4381C27.0534 40.2376 26.0788 39.2609 24.8807 39.2609C23.6802 39.2609 22.7036 40.2376 22.7036 41.4381ZM25.7938 41.4381C25.7938 41.9416 25.3842 42.3511 24.8807 42.3511C24.3748 42.3511 23.9631 41.9416 23.9631 41.4381C23.9631 40.9321 24.3748 40.5205 24.8807 40.5205C25.3841 40.5205 25.7938 40.9321 25.7938 41.4381ZM31.801 41.4381C31.801 42.6362 32.7778 43.6107 33.9783 43.6107C35.1764 43.6107 36.151 42.6362 36.151 41.4381C36.151 40.2376 35.1764 39.2609 33.9783 39.2609C32.7778 39.2609 31.801 40.2376 31.801 41.4381ZM34.8914 41.4381C34.8914 41.9416 34.4818 42.3511 33.9783 42.3511C33.4722 42.3511 33.0605 41.9416 33.0605 41.4381C33.0605 40.9321 33.4722 40.5205 33.9783 40.5205C34.4818 40.5205 34.8914 40.9321 34.8914 41.4381Z"></path></svg>