<svg xmlns="http://www.w3.org/2000/svg" width="33" height="33" viewBox="0 0 33 33"><g><path d="M16.4999 0C9.77802 0 4.30957 5.46845 4.30957 12.1904C4.30957 14.4033 5.30201 16.7832 5.3436 16.8836C5.66413 17.6445 6.2966 18.8262 6.75266 19.5189L15.1109 32.1832C15.453 32.7024 15.9592 33 16.4999 33C17.0406 33 17.5469 32.7024 17.8889 32.184L26.2479 19.5189C26.7047 18.8262 27.3364 17.6445 27.657 16.8836C27.6986 16.784 28.6903 14.404 28.6903 12.1904C28.6903 5.46845 23.2218 0 16.4999 0ZM26.3347 16.3272C26.0486 17.0091 25.4598 18.1084 25.0504 18.7294L16.6914 31.3945C16.5265 31.6447 16.4741 31.6447 16.3092 31.3945L7.95018 18.7294C7.54073 18.1084 6.95201 17.0084 6.66589 16.3265C6.6537 16.2971 5.74373 14.1064 5.74373 12.1904C5.74373 6.25939 10.569 1.43416 16.4999 1.43416C22.4309 1.43416 27.2561 6.25939 27.2561 12.1904C27.2561 14.1093 26.344 16.3057 26.3347 16.3272Z"></path><path d="M16.5001 5.7373C12.9412 5.7373 10.0464 8.63287 10.0464 12.191C10.0464 15.7492 12.9412 18.6447 16.5001 18.6447C20.059 18.6447 22.9538 15.7492 22.9538 12.191C22.9538 8.63287 20.059 5.7373 16.5001 5.7373ZM16.5001 17.2106C13.7329 17.2106 11.4805 14.9589 11.4805 12.191C11.4805 9.42309 13.7329 7.17146 16.5001 7.17146C19.2673 7.17146 21.5197 9.42309 21.5197 12.191C21.5197 14.9589 19.2673 17.2106 16.5001 17.2106Z"></path></g></svg>