<svg xmlns="http://www.w3.org/2000/svg" width="55" height="55" viewBox="0 0 55 55"><path fill-rule="evenodd" clip-rule="evenodd" d="M44.0778 32.6851H10.9223C6.00031 32.6851 1.99609 28.6809 1.99609 23.7589C1.99609 19.0695 5.64039 15.2063 10.2457 14.8583C10.9869 10.8556 14.3574 7.86017 18.4301 7.59495C18.9968 5.40983 20.9867 3.8325 23.2985 3.8325C23.6709 3.8325 24.0403 3.87331 24.4002 3.9537C26.5923 1.44185 29.7269 0.0115967 33.0771 0.0115967C39.4317 0.0115967 44.6007 5.18085 44.6007 11.5352C44.6007 12.6628 44.4396 13.7675 44.122 14.833C49.0236 14.8564 53.0041 18.8518 53.0041 23.7589C53.0041 28.6809 48.9998 32.6851 44.0778 32.6851ZM19.0172 9.07849C15.2335 9.07849 12.0624 11.911 11.644 15.6679C11.6236 15.8515 11.5363 16.0211 11.3988 16.1443C11.2613 16.2675 11.0832 16.3358 10.8986 16.336C6.81821 16.3479 3.49821 19.6776 3.49821 23.7589C3.49821 27.852 6.82795 31.1818 10.9211 31.1818H44.0778C48.1713 31.1818 51.501 27.852 51.501 23.7589C51.501 19.6658 48.171 16.336 44.0778 16.336C43.7603 16.336 43.4414 16.3564 43.1299 16.396C42.9993 16.4126 42.8667 16.3946 42.7452 16.3439C42.6237 16.2932 42.5177 16.2114 42.4377 16.1069C42.3577 16.0023 42.3066 15.8786 42.2894 15.7481C42.2722 15.6176 42.2895 15.4848 42.3397 15.3631C42.8418 14.1496 43.099 12.8488 43.0964 11.5355C43.0964 6.0097 38.602 1.51493 33.0761 1.51493C30.018 1.51493 27.1663 2.88611 25.2516 5.27615C25.1553 5.39643 25.0243 5.48421 24.8765 5.52761C24.7286 5.57102 24.571 5.56796 24.4249 5.51884C24.0616 5.39654 23.6807 5.33452 23.2973 5.33523C21.5215 5.33523 20.0172 6.66134 19.798 8.42015C19.7751 8.60192 19.6867 8.76909 19.5494 8.89031C19.412 9.01152 19.2351 9.07843 19.0519 9.07849H19.0172Z"></path><path fill-rule="evenodd" clip-rule="evenodd" d="M9.50621 42.0913C9.40749 42.0913 9.30971 42.072 9.21848 42.0342C9.12725 41.9965 9.04435 41.9411 8.97453 41.8713C8.9047 41.8015 8.84932 41.7187 8.81155 41.6275C8.77378 41.5362 8.75435 41.4385 8.75439 41.3397V35.6145C8.75431 35.5157 8.77371 35.4179 8.81146 35.3267C8.84921 35.2354 8.90459 35.1525 8.97442 35.0827C9.04425 35.0129 9.12716 34.9575 9.21841 34.9197C9.30966 34.882 9.40746 34.8626 9.50621 34.8627H16.5244V31.9333C16.5244 31.518 16.8603 31.1818 17.2759 31.1818C17.6916 31.1818 18.0274 31.518 18.0274 31.9336V35.6145C18.0275 35.7132 18.0081 35.8109 17.9703 35.9021C17.9326 35.9933 17.8772 36.0762 17.8074 36.146C17.7376 36.2158 17.6548 36.2711 17.5636 36.3089C17.4724 36.3466 17.3746 36.366 17.2759 36.366H10.2577V41.3397C10.2576 41.539 10.1784 41.7301 10.0375 41.8711C9.89661 42.012 9.7055 42.0912 9.50621 42.0913ZM15.1295 52.5187C15.0307 52.5188 14.933 52.4994 14.8417 52.4616C14.7505 52.4239 14.6676 52.3686 14.5978 52.2988C14.528 52.229 14.4726 52.1461 14.4348 52.0549C14.397 51.9637 14.3776 51.8659 14.3777 51.7672V42.872C14.3776 42.7733 14.397 42.6755 14.4347 42.5842C14.4725 42.493 14.5279 42.41 14.5977 42.3402C14.6675 42.2704 14.7504 42.215 14.8417 42.1773C14.9329 42.1395 15.0307 42.1201 15.1295 42.1202H22.3526V31.9324C22.3526 31.5171 22.6888 31.1809 23.1044 31.1809C23.5201 31.1809 23.8559 31.5171 23.8559 31.9324V42.872C23.856 42.9707 23.8366 43.0685 23.7988 43.1596C23.7611 43.2508 23.7057 43.3337 23.6359 43.4035C23.5661 43.4733 23.4833 43.5286 23.3921 43.5664C23.3009 43.6041 23.2031 43.6236 23.1044 43.6235H15.881V51.7672C15.881 51.8659 15.8616 51.9636 15.8239 52.0548C15.7861 52.146 15.7308 52.2289 15.661 52.2986C15.5912 52.3684 15.5083 52.4238 15.4171 52.4615C15.3259 52.4993 15.2282 52.5187 15.1295 52.5187Z"></path><path fill-rule="evenodd" clip-rule="evenodd" d="M22.7971 51.4964C22.6983 51.4964 22.6006 51.477 22.5094 51.4392C22.4181 51.4015 22.3353 51.3461 22.2655 51.2763C22.1957 51.2064 22.1403 51.1235 22.1026 51.0323C22.0649 50.9411 22.0455 50.8433 22.0456 50.7446V47.7802C22.0455 47.6815 22.0649 47.5837 22.1026 47.4925C22.1403 47.4013 22.1957 47.3184 22.2655 47.2486C22.3353 47.1787 22.4181 47.1233 22.5094 47.0856C22.6006 47.0478 22.6983 47.0284 22.7971 47.0284H26.7486V31.9336C26.7486 31.8349 26.768 31.7371 26.8057 31.6459C26.8435 31.5547 26.8988 31.4719 26.9686 31.4021C27.0384 31.3323 27.1213 31.2769 27.2125 31.2392C27.3037 31.2014 27.4014 31.182 27.5001 31.1821C27.5989 31.182 27.6966 31.2014 27.7879 31.2391C27.8791 31.2768 27.962 31.3322 28.0318 31.402C28.1016 31.4718 28.157 31.5547 28.1948 31.6459C28.2326 31.7371 28.252 31.8349 28.2519 31.9336V47.7799C28.252 47.8787 28.2326 47.9765 28.1949 48.0677C28.1571 48.159 28.1017 48.2419 28.0319 48.3117C27.9621 48.3816 27.8792 48.4369 27.7879 48.4747C27.6967 48.5124 27.5989 48.5318 27.5001 48.5318H23.5486V50.7449C23.5486 50.8436 23.5292 50.9413 23.4915 51.0325C23.4537 51.1237 23.3984 51.2066 23.3286 51.2764C23.2588 51.3462 23.1759 51.4015 23.0847 51.4393C22.9935 51.477 22.8958 51.4964 22.7971 51.4964ZM45.4941 42.0912C45.3954 42.0912 45.2977 42.0718 45.2065 42.0341C45.1153 41.9963 45.0324 41.941 44.9627 41.8712C44.8929 41.8014 44.8375 41.7185 44.7998 41.6273C44.762 41.5361 44.7426 41.4384 44.7426 41.3397V36.3659H37.7244C37.6257 36.366 37.5279 36.3466 37.4366 36.3089C37.3454 36.2711 37.2625 36.2157 37.1926 36.1459C37.1228 36.0761 37.0674 35.9932 37.0297 35.9019C36.9919 35.8107 36.9725 35.7129 36.9726 35.6141V31.9336C36.9726 31.5179 37.3088 31.1818 37.7244 31.1818C38.1401 31.1818 38.4759 31.5179 38.4759 31.9336V34.8629H45.4941C45.5929 34.8628 45.6906 34.8822 45.7819 34.9199C45.8731 34.9577 45.956 35.013 46.0258 35.0828C46.0957 35.1526 46.151 35.2355 46.1888 35.3267C46.2266 35.4179 46.246 35.5157 46.246 35.6144V41.3397C46.2457 41.539 46.1664 41.73 46.0255 41.8709C45.8845 42.0118 45.6934 42.091 45.4941 42.0912ZM39.8709 52.5186C39.7722 52.5187 39.6744 52.4992 39.5832 52.4615C39.492 52.4237 39.4092 52.3684 39.3394 52.2986C39.2696 52.2288 39.2142 52.1459 39.1765 52.0547C39.1387 51.9635 39.1193 51.8658 39.1194 51.7671V43.6232H31.8959C31.7972 43.6232 31.6995 43.6038 31.6083 43.566C31.5171 43.5283 31.4342 43.4729 31.3644 43.4031C31.2947 43.3333 31.2393 43.2505 31.2015 43.1593C31.1638 43.0681 31.1444 42.9703 31.1444 42.8716V31.9333C31.1444 31.8346 31.1638 31.7368 31.2015 31.6456C31.2393 31.5544 31.2947 31.4716 31.3644 31.4018C31.4342 31.332 31.5171 31.2766 31.6083 31.2389C31.6995 31.2011 31.7972 31.1817 31.8959 31.1818C31.9947 31.1817 32.0924 31.2011 32.1837 31.2388C32.2749 31.2765 32.3578 31.3319 32.4276 31.4017C32.4974 31.4715 32.5528 31.5544 32.5906 31.6456C32.6284 31.7368 32.6478 31.8346 32.6478 31.9333V42.121H39.8709C39.9696 42.121 40.0674 42.1404 40.1586 42.1781C40.2499 42.2159 40.3328 42.2713 40.4026 42.3411C40.4724 42.4109 40.5277 42.4938 40.5654 42.5851C40.6032 42.6763 40.6225 42.7741 40.6224 42.8729V51.7668C40.6225 51.8655 40.6031 51.9633 40.5653 52.0545C40.5276 52.1457 40.4723 52.2286 40.4025 52.2984C40.3327 52.3682 40.2498 52.4235 40.1586 52.4613C40.0674 52.499 39.9696 52.5184 39.8709 52.5183V52.5186ZM9.50611 44.5598C8.41081 44.5598 7.51953 43.6685 7.51953 42.5732C7.51953 41.4779 8.41081 40.587 9.50611 40.587C10.6014 40.587 11.4927 41.4782 11.4927 42.5732C11.4927 43.6682 10.6014 44.5598 9.50611 44.5598ZM9.50611 42.0912C9.37802 42.0914 9.25524 42.1424 9.16467 42.233C9.0741 42.3236 9.02311 42.4464 9.02286 42.5744C9.02311 42.7025 9.0741 42.8253 9.16467 42.9159C9.25524 43.0065 9.37802 43.0575 9.50611 43.0577C9.6342 43.0575 9.75698 43.0065 9.84755 42.9159C9.93813 42.8253 9.98912 42.7025 9.98936 42.5744C9.98912 42.4464 9.93813 42.3236 9.84755 42.233C9.75698 42.1424 9.6342 42.0914 9.50611 42.0912ZM15.1294 54.9881C14.6027 54.9876 14.0977 54.7781 13.7253 54.4057C13.3528 54.0332 13.1434 53.5283 13.1428 53.0016C13.1428 51.9066 14.0341 51.0153 15.1294 51.0153C16.2247 51.0153 17.1156 51.9066 17.1156 53.0016C17.1151 53.5282 16.9056 54.0331 16.5333 54.4056C16.1609 54.778 15.656 54.9875 15.1294 54.9881ZM15.1294 52.5186C15.0013 52.5189 14.8786 52.5698 14.788 52.6603C14.6975 52.7508 14.6464 52.8735 14.6461 53.0016C14.6464 53.1297 14.6974 53.2524 14.7879 53.343C14.8785 53.4336 15.0013 53.4846 15.1294 53.4848C15.2575 53.4846 15.3802 53.4336 15.4708 53.343C15.5614 53.2524 15.6124 53.1297 15.6126 53.0016C15.6124 52.8735 15.5614 52.7507 15.4708 52.6601C15.3802 52.5695 15.2575 52.5186 15.1294 52.5183V52.5186Z"></path><path fill-rule="evenodd" clip-rule="evenodd" d="M22.7971 53.9659C21.7018 53.9659 20.8105 53.0746 20.8105 51.9793C20.8105 50.884 21.7018 49.993 22.7971 49.993C23.8924 49.993 24.7837 50.8843 24.7837 51.9793C24.7837 53.0743 23.8924 53.9659 22.7971 53.9659ZM22.7971 51.4964C22.6691 51.4966 22.5464 51.5475 22.4558 51.6381C22.3652 51.7286 22.3142 51.8513 22.3139 51.9793C22.3141 52.1074 22.3651 52.2302 22.4557 52.3207C22.5463 52.4113 22.669 52.4623 22.7971 52.4625C22.9252 52.4623 23.048 52.4113 23.1386 52.3207C23.2291 52.2302 23.2801 52.1074 23.2804 51.9793C23.2801 51.8513 23.229 51.7286 23.1385 51.6381C23.0479 51.5475 22.9252 51.4966 22.7971 51.4964ZM39.8709 54.9881C39.3442 54.9875 38.8393 54.778 38.4668 54.4056C38.0944 54.0332 37.8849 53.5282 37.8844 53.0015C37.8844 51.9065 38.7756 51.0152 39.8709 51.0152C40.9662 51.0152 41.8575 51.9065 41.8575 53.0015C41.8569 53.5282 41.6475 54.0332 41.275 54.4056C40.9026 54.778 40.3976 54.9875 39.8709 54.9881ZM39.8709 52.5186C39.7429 52.5188 39.6202 52.5698 39.5296 52.6603C39.439 52.7508 39.388 52.8735 39.3877 53.0015C39.3877 53.268 39.6048 53.4848 39.8709 53.4848C40.1371 53.4848 40.3542 53.268 40.3542 53.0015C40.3539 52.8734 40.3029 52.7506 40.2124 52.6601C40.1218 52.5695 39.999 52.5185 39.8709 52.5183V52.5186ZM45.4942 44.5598C44.3989 44.5598 43.5076 43.6685 43.5076 42.5732C43.5076 41.4779 44.3989 40.5869 45.4942 40.5869C46.5895 40.5869 47.4808 41.4782 47.4808 42.5732C47.4808 43.6682 46.5895 44.5598 45.4942 44.5598ZM45.4942 42.0912C45.3661 42.0914 45.2433 42.1424 45.1528 42.233C45.0622 42.3235 45.0112 42.4463 45.0109 42.5744C45.0112 42.7025 45.0622 42.8253 45.1528 42.9158C45.2433 43.0064 45.3661 43.0574 45.4942 43.0577C45.6223 43.0574 45.7451 43.0064 45.8356 42.9158C45.9262 42.8253 45.9772 42.7025 45.9774 42.5744C45.9772 42.4463 45.9262 42.3235 45.8356 42.233C45.7451 42.1424 45.6223 42.0914 45.4942 42.0912Z"></path></svg>