<svg xmlns="http://www.w3.org/2000/svg" width="70" height="70" viewBox="0 0 70 70"><path d="M60.0794 30.8144C59.2676 30.1743 58.2018 30.0883 57.2979 30.5911L54.0063 32.4219C53.4226 32.7466 53.051 33.3141 52.9869 33.9786C52.9806 34.0431 52.9799 34.107 52.9796 34.1709L51.383 35.059C49.1564 36.2973 46.7701 36.511 44.2903 35.6935C41.1581 34.6613 37.804 35.2388 34.3207 37.4103L34.2271 37.4686C31.4206 35.6902 28.9028 35.9081 26.4629 36.1198C23.8955 36.3426 21.2412 36.5727 17.7664 34.6181L17.022 34.1994C17.0232 34.1256 17.0204 34.0519 17.0138 33.9784C16.9493 33.3137 16.5777 32.7463 15.9942 32.4218L12.7024 30.5908C11.7988 30.0886 10.733 30.174 9.92108 30.8143C4.52962 35.0667 1.53008 42.6241 2.78881 48.7842C2.95728 49.6076 3.49742 50.2682 4.27074 50.5965L6.85181 51.6926C7.10082 51.7993 7.3688 51.8548 7.63972 51.8555C8.01958 51.8555 8.39527 51.7441 8.73054 51.5248C8.83012 51.4583 8.92372 51.3833 9.01026 51.3005L15.1285 54.4547L16.9328 56.3963L16.8401 56.5567C16.3561 57.3952 16.2282 58.3747 16.48 59.3149C16.732 60.255 17.3325 61.0393 18.1711 61.5235C18.7102 61.8359 19.3211 62.0031 19.9441 62.0087C19.7391 62.6604 19.7232 63.3595 19.905 64.038C20.1569 64.9781 20.7575 65.7624 21.5961 66.2466C22.758 66.9174 24.1403 66.8721 25.2284 66.2477C25.5345 66.9731 26.0698 67.5781 26.7525 67.9703C27.5901 68.4538 28.5697 68.5815 29.5104 68.3293C29.8706 68.2334 30.214 68.0831 30.5288 67.8836C30.8407 68.5691 31.3597 69.1395 32.0127 69.5146C32.561 69.8325 33.1836 69.9999 33.8174 70C34.1349 70 34.455 69.9582 34.7706 69.8736C35.7113 69.6217 36.4958 69.0214 36.9795 68.1838L37.0014 68.1459L37.7047 68.5414C38.5097 69.0061 39.268 69.2026 39.9502 69.2026C41.2491 69.2026 42.271 68.4899 42.8081 67.5595C43.0808 67.0844 43.2333 66.5499 43.2526 66.0024C44.6484 66.2296 46.1046 65.5928 46.8528 64.2973C47.2274 63.65 47.3836 62.8993 47.2985 62.1562C48.546 62.1365 49.7537 61.4828 50.4216 60.3258C50.8353 59.6104 50.9938 58.7757 50.8711 57.9585C51.149 57.9488 51.428 57.9093 51.7036 57.8353C52.6515 57.5814 53.4424 56.9759 53.9305 56.1305C54.2698 55.5427 54.4338 54.8624 54.4128 54.1823L60.8783 51.191C60.9922 51.3158 61.1226 51.4285 61.2701 51.525C61.6051 51.7441 61.9805 51.8555 62.3606 51.8555C62.6252 51.8555 62.8919 51.8015 63.1488 51.6926L65.7297 50.5965C66.5029 50.2681 67.0432 49.6075 67.2117 48.784C68.4704 42.6241 65.471 35.0667 60.0794 30.8143V30.8144ZM7.66555 49.8979C7.64083 49.914 7.63875 49.9144 7.61166 49.9028L5.03073 48.8067C4.84198 48.7265 4.7349 48.5956 4.69379 48.3947C3.57394 42.9151 6.27863 36.1635 11.1251 32.3409C11.2337 32.2552 11.3526 32.2121 11.474 32.2121C11.5681 32.2121 11.6637 32.238 11.7574 32.2901L15.0491 34.1209C15.067 34.1309 15.0721 34.1376 15.0721 34.1376C15.0721 34.1376 15.0763 34.1452 15.0782 34.1654C15.0803 34.1856 15.0777 34.1937 15.0777 34.1937C15.0777 34.1937 15.0738 34.2013 15.0578 34.2147C10.3016 38.2189 7.75416 43.6258 7.69125 49.8503C7.69097 49.8799 7.69 49.8818 7.66541 49.8978L7.66555 49.8979ZM19.1434 59.8394C18.7547 59.615 18.4758 59.25 18.3585 58.8115C18.241 58.3732 18.2998 57.9175 18.5243 57.5289L20.4387 54.2129C20.6626 53.8249 21.0277 53.5466 21.4667 53.4288C21.9062 53.3109 22.3615 53.3697 22.7492 53.5938C23.5569 54.0601 23.8346 55.0963 23.3687 55.9041L21.4536 59.221C20.987 60.0285 19.9508 60.3057 19.1433 59.8394H19.1434ZM24.8792 63.9434C24.4125 64.7513 23.3758 65.029 22.5683 64.5627C22.1795 64.3383 21.9006 63.9733 21.7833 63.5348C21.6658 63.0965 21.7247 62.6408 21.9491 62.2522L23.1017 60.2554L23.1356 60.1967L23.138 60.1926L23.1383 60.1919L25.052 56.8773L25.0523 56.8767C25.2761 56.4887 25.6414 56.2102 26.0804 56.0926C26.5202 55.9745 26.975 56.0334 27.3628 56.2574C28.1704 56.7237 28.4482 57.7599 27.9822 58.5678C27.9822 58.5678 27.9822 58.5681 27.9819 58.5682L27.9814 58.5693L25.2918 63.2277L24.8788 63.9434H24.8792ZM29.0073 66.4514C28.5678 66.5694 28.1126 66.5106 27.7249 66.2864C27.3361 66.062 27.0572 65.697 26.9399 65.2585C26.8224 64.8202 26.8813 64.3645 27.1057 63.9759L29.6691 59.5358C29.8933 59.1504 30.2572 58.8736 30.6947 58.7565C31.1334 58.6389 31.5892 58.6974 31.977 58.9213C32.7842 59.3875 33.0623 60.4232 32.597 61.2308L32.5962 61.2322L32.5955 61.2336L30.4376 64.9712L30.0355 65.6676C29.8116 66.0555 29.4464 66.3339 29.0073 66.4517V66.4514ZM35.2956 67.2118C35.0717 67.5998 34.7066 67.8781 34.2675 67.9959C33.8281 68.1138 33.3728 68.055 32.9851 67.8309C32.5963 67.6064 32.3174 67.2414 32.2001 66.803C32.0826 66.3646 32.1415 65.9089 32.3659 65.5203L32.3662 65.5198L34.281 62.203C34.7477 61.3964 35.7835 61.1191 36.5908 61.5853C36.9796 61.8097 37.2585 62.1747 37.3758 62.6132C37.4935 63.0516 37.4344 63.5073 37.21 63.8959L35.2956 67.2118ZM52.2467 55.1584C52.0183 55.5541 51.6469 55.8378 51.2006 55.9574C50.7543 56.077 50.2908 56.0173 49.895 55.7885L49.0821 55.3192L49.08 55.318C49.0796 55.3178 49.0792 55.3177 49.0789 55.3174L47.0685 54.1567C46.8453 54.0299 46.581 53.9964 46.3332 54.0637C46.0855 54.1309 45.8744 54.2935 45.746 54.5158C45.6176 54.7381 45.5824 55.0022 45.648 55.2504C45.7137 55.4986 45.8748 55.7108 46.0963 55.8406L48.1087 57.0025C48.9301 57.4774 49.2123 58.5318 48.7379 59.3538C48.2633 60.176 47.2082 60.4582 46.386 59.984L45.576 59.5163L45.571 59.5132L44.6342 58.9724C44.5237 58.9085 44.4016 58.867 44.275 58.8504C44.1484 58.8337 44.0198 58.8421 43.8965 58.8751C43.7731 58.9082 43.6575 58.9652 43.5562 59.0429C43.455 59.1207 43.37 59.2176 43.3062 59.3282C43.2423 59.4388 43.2008 59.5608 43.1842 59.6874C43.1675 59.814 43.1759 59.9426 43.2089 60.0659C43.242 60.1893 43.299 60.3049 43.3767 60.4062C43.4545 60.5075 43.5514 60.5924 43.662 60.6562L44.5988 61.1972C45.3427 61.6266 45.5985 62.5814 45.1689 63.3251C44.7393 64.069 43.7848 64.3247 43.0412 63.8954L41.5224 63.0184C41.2991 62.8895 41.0338 62.8545 40.7847 62.9212C40.5356 62.988 40.3233 63.1509 40.1943 63.3742C40.0654 63.5975 40.0304 63.8629 40.0972 64.1119C40.1639 64.361 40.3268 64.5734 40.5501 64.7023L40.5545 64.7049C41.4072 65.1999 41.448 66.0273 41.1245 66.5875C40.7722 67.1981 39.944 67.5892 38.6676 66.8523L37.974 66.4623L38.8943 64.8683C39.8968 63.1319 39.2997 60.9037 37.5633 59.9012C36.6528 59.3757 35.6074 59.29 34.6745 59.5772C34.4568 58.6254 33.8596 57.7631 32.9495 57.2374C32.1117 56.7538 31.1323 56.6267 30.1915 56.8784C30.1479 56.8902 30.1044 56.9027 30.0612 56.9159C29.8441 55.9631 29.2466 55.0997 28.3355 54.5737C27.4979 54.0902 26.5188 53.9631 25.5777 54.2147C25.5335 54.2266 25.4896 54.2392 25.4461 54.2524C25.4359 54.2077 25.4248 54.1631 25.4129 54.1187C25.161 53.1784 24.5605 52.3941 23.7219 51.91C22.8842 51.4265 21.9048 51.2986 20.964 51.5509C20.0233 51.8029 19.2387 52.4032 18.7551 53.2408L17.9505 54.6345L16.4378 53.0066C16.3612 52.9243 16.271 52.8559 16.171 52.8044L9.6458 49.4406C9.80649 44.0113 11.9701 39.4596 16.0807 35.9007L16.8136 36.313C20.812 38.5617 23.9037 38.2935 26.6313 38.057C28.7191 37.8759 30.448 37.7267 32.3466 38.6414L25.6654 42.807C24.8127 43.3387 24.3095 44.133 24.2484 45.0435C24.1819 46.0321 24.6641 47.0798 25.5066 47.7775C28.4485 50.2133 31.163 48.8871 33.558 47.717C35.0575 46.9845 36.6082 46.2269 38.3121 46.2167H38.3474C40.2094 46.2167 41.7205 47.0909 43.3195 48.016L51.5731 52.7813C52.1385 53.1957 52.2554 53.4568 52.4259 53.8966C52.5273 54.3274 52.4631 54.7848 52.2473 55.1585L52.2467 55.1584ZM52.5888 51.1225L44.293 46.3328C42.5301 45.313 40.7106 44.2531 38.3004 44.2723C36.1528 44.2851 34.3206 45.1801 32.7041 45.9699C30.1605 47.2125 28.6297 47.8395 26.7464 46.2798C26.3824 45.9784 26.1632 45.5442 26.1881 45.1738C26.207 44.8919 26.3724 44.6574 26.6938 44.4572L35.3495 39.0604C38.3617 37.1824 41.0873 36.6849 43.6817 37.5403C46.6558 38.5204 49.6458 38.2502 52.3283 36.7581L53.9005 35.8837C57.9867 39.4128 60.1554 43.9198 60.3509 49.2929L53.8113 52.3186C53.5791 51.9626 53.2363 51.5826 52.6705 51.1754C52.6441 51.1564 52.6168 51.1387 52.5887 51.1225H52.5888ZM65.3067 48.3947C65.2656 48.5957 65.1586 48.7267 64.9698 48.8068L62.3891 49.9028C62.3615 49.9147 62.3601 49.9144 62.3351 49.8982C62.3103 49.8821 62.3094 49.8801 62.3091 49.8508C62.2462 43.6261 59.6987 38.2192 54.9423 34.2148C54.9347 34.209 54.9281 34.202 54.9228 34.1941C54.9221 34.1922 54.9206 34.183 54.9223 34.1656C54.9239 34.1483 54.9273 34.1395 54.9282 34.1379C54.9349 34.1311 54.9427 34.1254 54.9513 34.1212L58.2428 32.2905C58.3367 32.2383 58.4322 32.2125 58.5264 32.2125C58.6478 32.2125 58.7665 32.2557 58.8753 32.3414C63.7217 36.1638 66.4264 42.9155 65.3066 48.395L65.3067 48.3947ZM25.9765 20.1458C27.239 21.9071 28.3292 23.428 28.3292 25.6721V28.4053C28.3292 29.9367 29.4912 31.2007 30.9797 31.3644V32.537C30.9797 33.9195 32.1045 35.0444 33.487 35.0444H36.5132C37.8957 35.0444 39.0205 33.9195 39.0205 32.537V31.3644C40.509 31.2007 41.6711 29.9367 41.6711 28.4053V25.6721C41.6711 23.4281 42.7613 21.9072 44.0237 20.146C45.5921 17.9578 47.3699 15.4778 47.3699 11.1823C47.3699 7.72156 46.0115 4.81049 43.4416 2.76413C41.203 0.981653 38.2051 0 35.0002 0C31.7952 0 28.7973 0.981653 26.5589 2.76413C23.9889 4.81049 22.6306 7.72156 22.6306 11.1823C22.6306 15.4778 24.4082 17.9578 25.9765 20.1458ZM36.5132 33.1H33.487C33.1819 33.1 32.9241 32.8423 32.9241 32.537V31.3833H37.0761V32.537C37.0761 32.8422 36.8185 33.1 36.5132 33.1ZM38.6929 29.439H31.3072C30.7372 29.439 30.2736 28.9753 30.2736 28.4054V27.4117H39.7265V28.4054C39.7265 28.9754 39.2628 29.439 38.6929 29.439ZM35.8884 25.4671H34.1117V18.3277C34.7022 18.3914 35.2979 18.3914 35.8884 18.3277V25.4671ZM35 1.94442C40.0211 1.94442 45.4253 4.83521 45.4253 11.1825C45.4253 14.8531 43.9094 16.968 42.4431 19.0133C41.1397 20.8318 39.7936 22.7111 39.7296 25.4673H37.8326V18.1077C37.8326 18.0228 37.833 17.9389 37.834 17.8557C39.4804 17.2156 40.8133 16.0137 41.5584 14.4159C42.4417 12.522 42.4349 10.8251 41.5398 9.87625C40.9511 9.25223 40.0905 9.08168 39.2386 9.42029C37.8044 9.99014 36.2831 12.1097 35.9535 16.3537C35.6268 16.4067 35.3057 16.4314 35 16.4314C34.6943 16.4314 34.3731 16.4067 34.0466 16.3537C33.717 12.1097 32.1956 9.99014 30.7615 9.42029C29.9093 9.08168 29.0487 9.25223 28.4603 9.87625C27.5653 10.825 27.5583 12.522 28.4417 14.4159C29.1868 16.0137 30.5198 17.2155 32.166 17.8557C32.167 17.9391 32.1674 18.0228 32.1674 18.1077V25.4673H30.2705C30.2065 22.7111 28.8603 20.8317 27.5569 19.0132C26.0909 16.968 24.5749 14.8531 24.5749 11.1825C24.5749 4.83535 29.979 1.94442 35 1.94442ZM37.9839 15.6159C38.3064 13.1559 39.0883 11.7822 39.7808 11.3219C39.9434 11.2137 40.0498 11.195 40.0915 11.195C40.1012 11.195 40.1075 11.1961 40.1102 11.1972C40.1184 11.2007 40.1604 11.2382 40.2007 11.3444C40.3405 11.713 40.3077 12.4976 39.7964 13.594C39.3698 14.5087 38.7201 15.1658 37.9839 15.6159ZM32.016 15.6159C31.2797 15.1659 30.6302 14.5087 30.2036 13.5938C29.6922 12.4973 29.6594 11.7129 29.7993 11.3443C29.8396 11.238 29.8816 11.2007 29.8897 11.1971C29.8958 11.1953 29.9021 11.1945 29.9084 11.1948C29.9502 11.1948 30.0565 11.2136 30.2191 11.3218C30.9115 11.7821 31.6934 13.1559 32.016 15.6159ZM47.1383 3.92883C47.0094 3.70554 46.9745 3.44018 47.0412 3.19112C47.1079 2.94207 47.2709 2.72972 47.4942 2.6008L49.7686 1.28776C49.9918 1.16087 50.2561 1.12741 50.5038 1.19467C50.7516 1.26194 50.9627 1.42447 51.091 1.6468C51.2194 1.86913 51.2546 2.13321 51.189 2.38142C51.1234 2.62962 50.9623 2.84179 50.7408 2.97163L48.4664 4.28466C48.3558 4.34856 48.2338 4.39005 48.1072 4.40674C47.9806 4.42343 47.8519 4.41501 47.7286 4.38195C47.6052 4.34889 47.4896 4.29184 47.3883 4.21407C47.2871 4.1363 47.2021 4.03946 47.1383 3.92883ZM50.1638 10.6197H52.7901C53.0479 10.6197 53.2952 10.7221 53.4775 10.9045C53.6598 11.0868 53.7623 11.3341 53.7623 11.5919C53.7623 11.8498 53.6598 12.0971 53.4775 12.2794C53.2952 12.4617 53.0479 12.5641 52.7901 12.5641H50.1638C49.906 12.5641 49.6587 12.4617 49.4764 12.2794C49.2941 12.0971 49.1916 11.8498 49.1916 11.5919C49.1916 11.3341 49.2941 11.0868 49.4764 10.9045C49.6587 10.7221 49.906 10.6197 50.1638 10.6197ZM50.7408 20.2121C50.9641 20.341 51.1271 20.5534 51.1938 20.8024C51.2605 21.0515 51.2256 21.3169 51.0967 21.5402C50.9678 21.7635 50.7554 21.9265 50.5063 21.9932C50.2573 22.0599 49.9919 22.025 49.7686 21.8961L47.4942 20.5829C47.2727 20.4531 47.1116 20.2409 47.0459 19.9927C46.9803 19.7445 47.0155 19.4804 47.1439 19.2581C47.2723 19.0358 47.4834 18.8732 47.7311 18.806C47.9789 18.7387 48.2432 18.7722 48.4664 18.899L50.7408 20.2122V20.2121ZM18.9035 1.64345C19.0324 1.42019 19.2447 1.25728 19.4938 1.19055C19.7428 1.12383 20.0082 1.15874 20.2315 1.28762L22.5059 2.60066C22.7292 2.72958 22.8922 2.94193 22.9589 3.191C23.0257 3.44007 22.9907 3.70545 22.8618 3.92876C22.7329 4.15208 22.5205 4.31503 22.2715 4.38177C22.0224 4.44852 21.757 4.41359 21.5337 4.28466L19.2593 2.97163C19.036 2.8427 18.8731 2.63035 18.8063 2.3813C18.7396 2.13225 18.7745 1.86675 18.9035 1.64345ZM16.2379 11.5918C16.2379 11.3339 16.3404 11.0867 16.5227 10.9043C16.705 10.722 16.9523 10.6196 17.2101 10.6196H19.8364C20.0942 10.6196 20.3415 10.722 20.5238 10.9043C20.7061 11.0867 20.8086 11.3339 20.8086 11.5918C20.8086 11.8496 20.7061 12.0969 20.5238 12.2792C20.3415 12.4616 20.0942 12.564 19.8364 12.564H17.2101C16.9523 12.564 16.705 12.4616 16.5227 12.2792C16.3404 12.0969 16.2379 11.8496 16.2379 11.5918ZM22.8619 19.2547C22.9908 19.478 23.0257 19.7434 22.959 19.9924C22.8923 20.2415 22.7293 20.4538 22.506 20.5828L20.2316 21.8959C20.1211 21.9598 19.999 22.0013 19.8724 22.018C19.7458 22.0347 19.6172 22.0263 19.4938 21.9932C19.3705 21.9602 19.2549 21.9031 19.1536 21.8254C19.0523 21.7476 18.9674 21.6506 18.9036 21.54C18.7747 21.3167 18.7397 21.0513 18.8065 20.8023C18.8732 20.5532 19.0361 20.3409 19.2594 20.2119L21.5338 18.8988C21.7571 18.7698 22.0225 18.7349 22.2715 18.8016C22.5206 18.8684 22.7329 19.0313 22.8619 19.2546V19.2547Z"></path></svg>