<svg xmlns="http://www.w3.org/2000/svg" width="55" height="55" viewBox="0 0 55 55"><path d="M41.7029 53.6685H13.2959C12.3676 53.6685 11.6123 52.9132 11.6123 51.9848V50.8709C11.6123 49.3284 12.8673 48.0734 14.4098 48.0734H40.589C42.1315 48.0734 43.3864 49.3284 43.3864 50.8709V51.9848C43.3864 52.9132 42.6312 53.6685 41.7029 53.6685ZM14.4098 49.1958C13.4862 49.1958 12.7347 49.9473 12.7347 50.8709V51.9848C12.7347 52.2943 12.9865 52.546 13.2959 52.546H41.7027C42.0122 52.546 42.264 52.2943 42.264 51.9848V50.8709C42.264 49.9473 41.5125 49.1958 40.589 49.1958H14.4098Z"></path><path d="M38.3442 49.1959C36.4458 49.1959 34.8999 48.248 33.8734 46.4546C32.8671 44.6962 32.3567 42.1572 32.3567 38.9081H33.4791C33.4791 42.331 34.1112 48.0735 38.3441 48.0735V49.1959H38.3442ZM16.6548 49.1959V48.0735C20.8877 48.0735 21.5197 42.331 21.5197 38.9081H22.6422C22.6422 42.1572 22.1319 44.6962 21.1254 46.4546C20.0991 48.248 18.5532 49.1959 16.6548 49.1959Z"></path><path d="M51.0706 39.4693H46.9992V38.3468H51.0706C52.6178 38.3468 53.8766 37.088 53.8766 35.5407V5.26017C53.8766 3.7129 52.6178 2.4541 51.0706 2.4541H3.9285C2.38124 2.4541 1.12243 3.7129 1.12243 5.26017V35.5406C1.12243 37.0879 2.38124 38.3467 3.9285 38.3467H34.9435V39.4691H3.9285C1.76233 39.4691 0 37.7068 0 35.5406V5.26017C0 3.09399 1.76233 1.33167 3.9285 1.33167H51.0706C53.2367 1.33167 54.9991 3.09399 54.9991 5.26017V35.5406C54.9991 37.7069 53.2367 39.4693 51.0706 39.4693Z"></path><path d="M51.0706 33.7439H47.9709V32.6214H51.0706C51.1283 32.6214 51.1828 32.5669 51.1828 32.5092V5.26006C51.1828 5.20237 51.1283 5.14782 51.0706 5.14782H3.92852C3.87083 5.14782 3.81628 5.20237 3.81628 5.26006V32.5092C3.81628 32.5669 3.87083 32.6214 3.92852 32.6214H33.0055V33.7439H3.92852C3.24765 33.7439 2.69385 33.1899 2.69385 32.5092V5.26006C2.69385 4.57931 3.24777 4.02539 3.92852 4.02539H51.0706C51.7513 4.02539 52.3053 4.57931 52.3053 5.26006V32.5092C52.3053 33.1899 51.7514 33.7439 51.0706 33.7439Z"></path><path d="M29.5698 29.9665H28.4474V20.8163C28.4474 20.0118 29.102 19.3572 29.9066 19.3572H33.5063C34.3109 19.3572 34.9655 20.0118 34.9655 20.8163V29.4366H33.843V20.8163C33.843 20.6307 33.692 20.4796 33.5063 20.4796H29.9066C29.7209 20.4796 29.5698 20.6307 29.5698 20.8163V29.9665ZM26.5521 29.9665H25.4296V17.2156C25.4296 17.0299 25.2786 16.8788 25.0929 16.8788H21.4933C21.3076 16.8788 21.1565 17.0299 21.1565 17.2156V29.9665H20.0341V17.2156C20.0341 16.411 20.6887 15.7564 21.4933 15.7564H25.0929C25.8975 15.7564 26.5521 16.411 26.5521 17.2156V29.9665ZM18.1387 29.9665H17.0162V23.697C17.0162 23.5114 16.8652 23.3603 16.6795 23.3603H13.0798C12.8941 23.3603 12.743 23.5114 12.743 23.697V29.9665H11.6206V23.697C11.6206 22.8925 12.2752 22.2379 13.0798 22.2379H16.6795C17.4841 22.2379 18.1387 22.8925 18.1387 23.697V29.9665ZM37.9832 26.9824H36.8608V14.7372C36.8608 13.9327 37.5154 13.2781 38.32 13.2781H41.9197C42.7243 13.2781 43.3789 13.9327 43.3789 14.7372V26.6981H42.2564V14.7372C42.2564 14.5516 42.1054 14.4005 41.9197 14.4005H38.32C38.1343 14.4005 37.9832 14.5516 37.9832 14.7372V26.9824Z" fill-opacity="0.2"></path><path d="M16.3448 16.1829C16.2248 16.1831 16.1079 16.1449 16.0112 16.0737C15.9145 16.0026 15.8432 15.9023 15.8078 15.7876C15.7723 15.673 15.7745 15.55 15.8142 15.4367C15.8538 15.3234 15.9287 15.2257 16.0278 15.1582L21.5341 11.3987C21.6571 11.3162 21.8076 11.2857 21.953 11.3137C22.0983 11.3418 22.2267 11.4261 22.3102 11.5483C22.3936 11.6706 22.4254 11.8208 22.3986 11.9664C22.3718 12.112 22.2886 12.2411 22.1671 12.3256L16.6608 16.0851C16.5677 16.1488 16.4576 16.1829 16.3448 16.1829ZM30.0469 14.0007C29.9789 14.0007 29.9115 13.9883 29.848 13.9641L24.7482 12.0298C24.6785 12.0043 24.6144 11.9652 24.5599 11.9148C24.5054 11.8644 24.4614 11.8037 24.4305 11.7361C24.3996 11.6686 24.3824 11.5955 24.38 11.5213C24.3775 11.4471 24.3898 11.3731 24.4161 11.3036C24.4425 11.2342 24.4824 11.1707 24.5335 11.1167C24.5845 11.0628 24.6458 11.0196 24.7137 10.9895C24.7817 10.9594 24.8549 10.9432 24.9291 10.9416C25.0034 10.9401 25.0772 10.9533 25.1464 10.9805L30.2461 12.9148C30.3689 12.9613 30.4714 13.0495 30.5359 13.1639C30.6004 13.2782 30.6228 13.4116 30.5991 13.5408C30.5754 13.6699 30.5072 13.7867 30.4063 13.8707C30.3054 13.9548 30.1782 14.0008 30.0469 14.0007ZM33.1265 13.5527C33.0089 13.5529 32.8943 13.516 32.7987 13.4475C32.7032 13.3789 32.6316 13.2821 32.5941 13.1707C32.5566 13.0592 32.555 12.9388 32.5896 12.8265C32.6241 12.7141 32.6932 12.6154 32.7868 12.5444L38.7193 8.04386L38.2055 7.96686C38.0583 7.9448 37.9258 7.86516 37.8373 7.74546C37.7488 7.62576 37.7115 7.47581 37.7336 7.32859C37.7556 7.18137 37.8353 7.04894 37.955 6.96044C38.0747 6.87193 38.2246 6.8346 38.3718 6.85666L40.2027 7.13087C40.35 7.15295 40.4824 7.23261 40.5709 7.35231C40.6594 7.47202 40.6967 7.62198 40.6746 7.7692L40.4003 9.60011C40.3782 9.74731 40.2986 9.87972 40.1789 9.9682C40.0592 10.0567 39.9092 10.094 39.762 10.0719C39.6148 10.0498 39.4824 9.9702 39.3939 9.8505C39.3054 9.7308 39.2681 9.58086 39.2902 9.43365L39.3602 8.96627L33.4652 13.4384C33.368 13.5127 33.2489 13.5529 33.1265 13.5527ZM47.4653 43.056L45.2834 40.8741C45.0962 40.687 44.828 40.6533 44.6003 40.7884C43.3597 41.5245 41.9377 41.9134 40.4881 41.9134C36.037 41.9134 32.4158 38.2921 32.4158 33.8411C32.4158 29.3901 36.037 25.7688 40.4881 25.7688C44.9392 25.7688 48.5604 29.3901 48.5604 33.8411C48.5604 35.2907 48.1713 36.7127 47.4353 37.9534C47.3002 38.1811 47.334 38.4493 47.5212 38.6366L49.7031 40.8184L48.9094 41.6119L46.7275 39.4301C46.1744 38.8769 46.0709 38.0533 46.4701 37.3806C47.1033 36.3133 47.438 35.0894 47.438 33.8411C47.438 30.0089 44.3204 26.8913 40.4882 26.8913C36.656 26.8913 33.5383 30.0089 33.5383 33.8411C33.5383 37.6733 36.656 40.791 40.4882 40.791C41.7364 40.791 42.9603 40.4563 44.0278 39.823C44.7004 39.4237 45.5242 39.5273 46.0772 40.0804L48.2591 42.2624L47.4653 43.056Z"></path><path d="M52.827 48.352C52.2451 48.352 51.6992 48.1265 51.2899 47.7171L47.6145 44.0418C47.0681 43.4953 47.0682 42.6064 47.6145 42.0601L48.707 40.9676C49.2534 40.4211 50.1424 40.4211 50.6888 40.9676L54.3642 44.6429C55.2118 45.4904 55.2118 46.8697 54.3642 47.7172C53.9547 48.1266 53.4089 48.352 52.827 48.352ZM49.6979 41.6801C49.6545 41.6801 49.5712 41.6907 49.5007 41.7612V41.7613L48.4081 42.8537C48.3559 42.9061 48.3265 42.977 48.3265 43.051C48.3265 43.125 48.3559 43.1959 48.4081 43.2483L52.0834 46.9236C52.4933 47.3335 53.1604 47.3336 53.5704 46.9236C53.6681 46.826 53.7454 46.71 53.7979 46.5824C53.8505 46.4548 53.8772 46.318 53.8765 46.18C53.8765 45.8979 53.7679 45.6339 53.5704 45.4365L49.895 41.7612C49.8691 41.7353 49.8384 41.7149 49.8046 41.701C49.7707 41.6871 49.7345 41.68 49.6979 41.6801ZM40.4881 40.0437C37.0679 40.0437 34.2854 37.2612 34.2854 33.8411C34.2854 30.4208 37.0679 27.6383 40.4881 27.6383C43.9082 27.6383 46.6907 30.4208 46.6907 33.8411C46.6907 37.2612 43.9082 40.0437 40.4881 40.0437ZM40.4881 28.7607C37.6868 28.7607 35.4078 31.0398 35.4078 33.8411C35.4078 36.6423 37.6868 38.9213 40.4881 38.9213C43.2893 38.9213 45.5683 36.6423 45.5683 33.8411C45.5683 31.0398 43.2893 28.7607 40.4881 28.7607ZM33.9368 30.5277H9.15643C9.00759 30.5277 8.86484 30.4685 8.75959 30.3633C8.65434 30.258 8.59521 30.1153 8.59521 29.9665C8.59521 29.8176 8.65434 29.6749 8.75959 29.5696C8.86484 29.4644 9.00759 29.4052 9.15643 29.4052H33.9368C34.0856 29.4052 34.2284 29.4644 34.3336 29.5696C34.4389 29.6749 34.498 29.8176 34.498 29.9665C34.498 30.1153 34.4389 30.258 34.3336 30.3633C34.2284 30.4685 34.0856 30.5277 33.9368 30.5277Z"></path><path d="M14.8795 18.8695C13.6401 18.8695 12.6318 17.8612 12.6318 16.6218C12.6318 15.3824 13.6401 14.3742 14.8795 14.3742C16.1189 14.3742 17.1272 15.3824 17.1272 16.6218C17.1272 17.8612 16.1189 18.8695 14.8795 18.8695ZM14.8795 15.4966C14.259 15.4966 13.7543 16.0013 13.7543 16.6218C13.7543 17.2423 14.2591 17.7471 14.8795 17.7471C15.4999 17.7471 16.0047 17.2423 16.0047 16.6218C16.0047 16.0013 15.4999 15.4966 14.8795 15.4966ZM23.2928 13.1252C22.0534 13.1252 21.0452 12.1169 21.0452 10.8776C21.0452 9.63817 22.0535 8.63 23.2928 8.63C24.5322 8.63 25.5405 9.63817 25.5405 10.8776C25.5405 12.1169 24.5322 13.1252 23.2928 13.1252ZM23.2928 9.75232C22.6724 9.75232 22.1677 10.2571 22.1677 10.8774C22.1677 11.4979 22.6724 12.0027 23.2928 12.0027C23.9133 12.0027 24.418 11.4979 24.418 10.8774C24.4181 10.2571 23.9133 9.75232 23.2928 9.75232ZM31.7062 16.3164C30.4668 16.3164 29.4585 15.3081 29.4585 14.0687C29.4585 12.8294 30.4668 11.8212 31.7062 11.8212C32.9456 11.8212 33.9539 12.8294 33.9539 14.0687C33.9539 15.3081 32.9456 16.3164 31.7062 16.3164ZM31.7062 12.9436C31.0857 12.9436 30.581 13.4484 30.581 14.0687C30.581 14.6892 31.0857 15.194 31.7062 15.194C32.3267 15.194 32.8314 14.6892 32.8314 14.0687C32.8315 13.4484 32.3267 12.9436 31.7062 12.9436Z" fill-opacity="0.2"></path></svg>