<svg xmlns="http://www.w3.org/2000/svg" width="70" height="70" viewBox="0 0 70 70"><path d="M40.026 12.0429L41.7123 9.12228C41.7841 8.99787 41.8797 8.88883 41.9936 8.80137C42.1076 8.71392 42.2376 8.64977 42.3764 8.6126C42.5151 8.57542 42.6598 8.56595 42.8022 8.58472C42.9447 8.60348 43.082 8.65012 43.2063 8.72197C43.4576 8.86702 43.6409 9.10591 43.7159 9.3861C43.791 9.66629 43.7517 9.96482 43.6067 10.216L41.9204 13.1366C41.8486 13.2611 41.753 13.3701 41.639 13.4576C41.5251 13.545 41.395 13.6092 41.2562 13.6464C41.1175 13.6835 40.9727 13.693 40.8303 13.6742C40.6879 13.6555 40.5506 13.6088 40.4262 13.5369C40.175 13.3919 39.9917 13.153 39.9167 12.8728C39.8416 12.5926 39.8809 12.2941 40.026 12.0429ZM32.8072 11.4954C33.0973 11.4954 33.3755 11.3802 33.5806 11.1751C33.7858 10.97 33.901 10.6918 33.901 10.4017V7.02912C33.901 6.73904 33.7858 6.46084 33.5806 6.25572C33.3755 6.05061 33.0973 5.93537 32.8072 5.93537C32.5172 5.93537 32.239 6.05061 32.0338 6.25572C31.8287 6.46084 31.7135 6.73904 31.7135 7.02912V10.4017C31.7135 10.6918 31.8287 10.97 32.0338 11.1751C32.239 11.3802 32.5172 11.4954 32.8072 11.4954ZM23.6938 13.1366C23.7656 13.2611 23.8612 13.3701 23.9752 13.4576C24.0892 13.545 24.2192 13.6092 24.358 13.6464C24.4968 13.6835 24.6415 13.693 24.7839 13.6742C24.9263 13.6555 25.0637 13.6088 25.188 13.5369C25.4393 13.3919 25.6226 13.153 25.6976 12.8728C25.7727 12.5926 25.7334 12.2941 25.5884 12.0429L23.9021 9.12228C23.756 8.87312 23.5173 8.69185 23.2381 8.61802C22.9588 8.5442 22.6618 8.58382 22.4116 8.72824C22.1615 8.87265 21.9786 9.11014 21.903 9.38887C21.8273 9.6676 21.8649 9.96496 22.0077 10.216L23.6938 13.1366ZM46.9523 19.6618C47.144 19.6618 47.3323 19.6112 47.4982 19.5151L50.4189 17.8288C50.6681 17.6827 50.8494 17.444 50.9232 17.1648C50.997 16.8856 50.9574 16.5885 50.813 16.3384C50.6686 16.0882 50.4311 15.9054 50.1524 15.8297C49.8736 15.754 49.5763 15.7917 49.3252 15.9344L46.4045 17.6207C46.1958 17.7411 46.0328 17.927 45.9406 18.1496C45.8485 18.3722 45.8324 18.6189 45.8948 18.8516C45.9572 19.0842 46.0947 19.2898 46.286 19.4363C46.4772 19.5828 46.7114 19.662 46.9523 19.6618ZM42.9592 25.3414V28.3645C42.9592 28.6546 42.8439 28.9328 42.6388 29.1379C42.4337 29.343 42.1555 29.4582 41.8654 29.4582H41.1981C41.0393 29.9714 40.8331 30.4686 40.5823 30.9436L41.0547 31.4159C41.2598 31.621 41.375 31.8992 41.375 32.1893C41.375 32.4793 41.2598 32.7575 41.0547 32.9626L38.9169 35.1004C38.8154 35.2019 38.6948 35.2825 38.5621 35.3374C38.4294 35.3924 38.2871 35.4207 38.1435 35.4207C37.9998 35.4206 37.8576 35.3923 37.7249 35.3374C37.5922 35.2824 37.4717 35.2018 37.3701 35.1002L36.898 34.6281C36.4231 34.879 35.9258 35.0851 35.4127 35.2439V35.9111C35.4127 36.2012 35.2975 36.4794 35.0923 36.6845C34.8872 36.8896 34.609 37.0048 34.3189 37.0048H31.2958C31.0057 37.0048 30.7275 36.8896 30.5224 36.6845C30.3173 36.4794 30.2021 36.2012 30.2021 35.9111V35.2439C29.689 35.0851 29.1917 34.879 28.7168 34.6281L28.2445 35.1004C28.143 35.2019 28.0224 35.2825 27.8897 35.3375C27.757 35.3924 27.6148 35.4207 27.4711 35.4207C27.3275 35.4207 27.1852 35.3924 27.0525 35.3375C26.9198 35.2825 26.7993 35.2019 26.6977 35.1004L24.5601 32.9626C24.355 32.7575 24.2398 32.4793 24.2398 32.1893C24.2398 31.8992 24.355 31.621 24.5601 31.4159L25.0323 30.9437C24.7814 30.4687 24.5753 29.9714 24.4165 29.4582H23.7494C23.4593 29.4582 23.1811 29.343 22.976 29.1379C22.7708 28.9328 22.6556 28.6546 22.6556 28.3645V25.3414C22.6556 25.0513 22.7708 24.7731 22.976 24.568C23.1811 24.3629 23.4593 24.2476 23.7494 24.2476H24.4167C24.5755 23.7345 24.7816 23.2373 25.0325 22.7623L24.5602 22.2902C24.4586 22.1887 24.3781 22.0681 24.3231 21.9354C24.2681 21.8027 24.2398 21.6604 24.2398 21.5168C24.2398 21.3732 24.2681 21.2309 24.3231 21.0982C24.3781 20.9655 24.4586 20.8449 24.5602 20.7434L26.698 18.6056C26.9031 18.4006 27.1813 18.2854 27.4713 18.2854C27.7614 18.2854 28.0395 18.4006 28.2447 18.6056L28.7169 19.0779C29.1919 18.8271 29.6891 18.621 30.2022 18.4622V17.7948C30.2022 17.5047 30.3174 17.2265 30.5226 17.0214C30.7277 16.8162 31.0059 16.701 31.296 16.701H34.3191C34.6092 16.701 34.8874 16.8162 35.0925 17.0214C35.2976 17.2265 35.4128 17.5047 35.4128 17.7948V18.4622C35.9259 18.621 36.4232 18.8271 36.8981 19.0779L37.3705 18.6056C37.5757 18.4006 37.8538 18.2855 38.1439 18.2855C38.4339 18.2855 38.7121 18.4006 38.9172 18.6056L41.0549 20.7434C41.26 20.9485 41.3752 21.2267 41.3752 21.5167C41.3752 21.8068 41.26 22.085 41.0549 22.2901L40.5827 22.7624C40.8335 23.2374 41.0396 23.7346 41.1984 24.2476H41.8658C42.1558 24.2477 42.4339 24.363 42.639 24.5681C42.844 24.7732 42.9592 25.0514 42.9592 25.3414ZM40.7717 26.4351H40.3485C40.0956 26.4351 39.8504 26.3475 39.6549 26.187C39.4593 26.0266 39.3254 25.8034 39.276 25.5553C39.1085 24.7126 38.7763 23.9112 38.2984 23.1971C38.158 22.9867 38.0948 22.7341 38.1197 22.4824C38.1445 22.2307 38.2559 21.9953 38.4347 21.8165L38.7344 21.5167L38.1435 20.9258L37.8438 21.2254C37.665 21.4043 37.4297 21.5157 37.178 21.5405C36.9263 21.5654 36.6737 21.5022 36.4634 21.3618C35.7492 20.8839 34.9478 20.5517 34.105 20.3844C33.8569 20.3349 33.6336 20.201 33.4731 20.0054C33.3126 19.8098 33.2249 19.5647 33.2249 19.3117V18.8884H32.3893V19.3115C32.3893 19.5645 32.3016 19.8096 32.1412 20.0052C31.9808 20.2008 31.7576 20.3347 31.5095 20.3842C30.6667 20.5517 29.8652 20.8839 29.1511 21.3618C28.9407 21.5021 28.6882 21.5652 28.4365 21.5404C28.1848 21.5155 27.9494 21.4042 27.7705 21.2254L27.4708 20.9258L26.8799 21.5167L27.1796 21.8162C27.3585 21.9951 27.4698 22.2304 27.4947 22.4821C27.5195 22.7338 27.4564 22.9864 27.3161 23.1968C26.8382 23.9109 26.5059 24.7124 26.3384 25.5552C26.2889 25.8033 26.155 26.0265 25.9595 26.187C25.7639 26.3474 25.5188 26.4351 25.2658 26.4351H24.8428V27.2707H25.2658C25.7874 27.2707 26.2365 27.6391 26.3384 28.1507C26.5059 28.9935 26.8381 29.7949 27.3159 30.5091C27.4564 30.7194 27.5195 30.972 27.4947 31.2237C27.4698 31.4755 27.3585 31.7108 27.1796 31.8896L26.8801 32.1893L27.471 32.7802L27.7707 32.4805C27.9495 32.3017 28.1848 32.1904 28.4365 32.1656C28.6882 32.1407 28.9407 32.2038 29.1511 32.3442C29.8652 32.8222 30.6667 33.1544 31.5095 33.3218C31.7576 33.3712 31.9809 33.5052 32.1413 33.7008C32.3018 33.8963 32.3894 34.1415 32.3894 34.3945V34.8175H33.2251V34.3945C33.225 34.1415 33.3127 33.8963 33.4732 33.7008C33.6336 33.5052 33.8569 33.3712 34.105 33.3218C34.9478 33.1543 35.7493 32.8221 36.4634 32.3442C36.6738 32.2038 36.9263 32.1407 37.1781 32.1656C37.4298 32.1904 37.6651 32.3018 37.844 32.4807L38.1435 32.7802L38.7344 32.1893L38.4347 31.8895C38.2559 31.7107 38.1446 31.4754 38.1197 31.2237C38.0949 30.972 38.158 30.7194 38.2984 30.5091C38.7763 29.7949 39.1085 28.9935 39.276 28.1507C39.3254 27.9026 39.4593 27.6793 39.6549 27.5189C39.8505 27.3584 40.0957 27.2707 40.3487 27.2707H40.7718V26.4351H40.7717ZM46.9057 26.8369C46.9057 31.7799 44.2652 36.4238 40.0146 38.9564C39.5218 39.2502 39.2611 39.7087 39.2611 40.2823V43.453C39.2611 44.6563 38.5189 45.6885 37.4689 46.1192C37.3782 48.0964 35.7415 49.6773 33.7424 49.6773H31.8721C29.8729 49.6773 28.2362 48.0966 28.1454 46.1192C27.0954 45.6885 26.3534 44.6564 26.3534 43.453V40.2823C26.3534 39.7087 26.0929 39.2502 25.5997 38.9564C21.3493 36.4239 18.7088 31.78 18.7088 26.8369C18.7088 19.0631 25.0334 12.7386 32.8072 12.7386C40.5811 12.7386 46.9057 19.0631 46.9057 26.8369ZM44.7182 26.8369C44.7182 20.2692 39.3749 14.9261 32.8071 14.9261C26.2394 14.9261 20.8962 20.2692 20.8962 26.8369C20.8962 31.0131 23.1274 34.937 26.7193 37.0772C27.8769 37.7669 28.5408 38.9352 28.5408 40.2821V41.0532H37.0736V40.2821C37.0736 38.9349 37.7373 37.7669 38.8949 37.0772C42.4868 34.937 44.7182 31.0131 44.7182 26.8369ZM50.4189 35.6393L47.4982 33.9529C47.2471 33.8101 46.9498 33.7725 46.6711 33.8481C46.3923 33.9238 46.1548 34.1067 46.0104 34.3568C45.866 34.6069 45.8264 34.904 45.9002 35.1833C45.974 35.4625 46.1553 35.7012 46.4045 35.8472L49.3252 37.5337C49.4496 37.6055 49.5869 37.6521 49.7293 37.6709C49.8717 37.6897 50.0165 37.6802 50.1552 37.643C50.294 37.6058 50.424 37.5417 50.538 37.4542C50.652 37.3668 50.7476 37.2578 50.8194 37.1334C50.9644 36.8821 51.0036 36.5836 50.9285 36.3034C50.8535 36.0232 50.6701 35.7843 50.4189 35.6393ZM32.8072 21.0644C29.6155 21.0644 27.019 23.6611 27.019 26.8528C27.019 30.0445 29.6157 32.6412 32.8072 32.6412C35.9988 32.6412 38.5955 30.0445 38.5955 26.8528C38.5955 23.6611 35.9988 21.0644 32.8072 21.0644ZM62.4527 41.2798L59.6691 41.8049L59.6461 45.7189C59.6447 45.9491 59.5708 46.173 59.4347 46.3588C59.2987 46.5445 59.1075 46.6826 58.8884 46.7533C58.6135 46.8419 57.9416 47.0589 57.4913 47.2508C57.7905 47.5393 58.3019 47.9594 59.0203 48.5067C59.1543 48.6088 59.2629 48.7404 59.3376 48.8913C59.4124 49.0422 59.4513 49.2084 59.4513 49.3768C59.4513 50.6693 59.0434 51.2568 58.6115 51.8786C58.1243 52.5803 57.388 53.6405 56.607 56.9841C56.5698 57.1436 56.4972 57.2928 56.3945 57.4204C54.8337 59.363 51.4413 58.54 48.1605 57.7445C46.4109 57.3202 44.2334 56.7912 43.5114 57.1081C42.2489 57.6607 42.2415 58.2892 43.4591 61.5917C44.1788 63.5435 45.0745 65.9728 45.0745 68.7114C45.0745 69.0011 44.9595 69.279 44.7549 69.484C44.5503 69.6891 44.2726 69.8046 43.9829 69.8052L14.0739 69.8633H14.0717C13.9153 69.8633 13.7608 69.8297 13.6185 69.7649C13.4762 69.7001 13.3494 69.6055 13.2467 69.4875C13.1441 69.3696 13.0679 69.231 13.0233 69.0811C12.9787 68.9312 12.9668 68.7735 12.9884 68.6186C13.1468 67.482 13.6315 66.0955 14.2451 64.3401C15.6463 60.3318 17.553 54.8774 17.2227 47.9253C12.6579 44.5182 9.39416 39.7562 7.76789 34.1198C6.20807 28.7142 6.29188 22.7988 8.00373 17.4634C9.60813 12.4631 12.5317 8.22473 16.4586 5.20611C20.7729 1.88959 26.2534 0.136719 32.3077 0.136719C36.4861 0.136719 40.2599 0.779297 43.5244 2.04654C46.6735 3.26908 49.3625 5.07541 51.5167 7.41535C56.1084 12.4029 58.1609 19.6149 57.4538 28.2747C57.4698 29.9712 58.4441 31.1999 59.6749 32.7523C61.0473 34.4831 62.7551 36.6371 63.3283 40.0225C63.3761 40.305 63.3111 40.5949 63.1473 40.83C62.9836 41.0651 62.7342 41.2266 62.4527 41.2798ZM60.9414 39.3388C60.333 37.1029 59.1297 35.5853 57.9609 34.1113C56.5751 32.3637 55.2662 30.7128 55.2662 28.2323C55.2662 28.2021 55.2674 28.1721 55.2699 28.1421C55.9366 20.0866 54.0823 13.4318 49.9073 8.89684C45.8922 4.53564 39.9709 2.32422 32.3077 2.32422C21.5695 2.32422 13.2628 8.23361 10.0868 18.1316C6.70573 28.6695 10.3392 40.3177 18.9228 46.4581C19.0549 46.5526 19.1643 46.6753 19.2431 46.8174C19.3218 46.9595 19.3679 47.1173 19.378 47.2794C19.8567 54.916 17.7225 61.0217 16.3102 65.0619C15.9714 66.0311 15.6611 66.9188 15.4425 67.6732L42.8323 67.6199C42.6421 65.6986 41.9916 63.9343 41.4069 62.3483C40.8604 60.866 40.3883 59.5859 40.3718 58.4108C40.3502 56.8832 41.1114 55.7705 42.6343 55.1038C44.032 54.4921 46.1841 55.0141 48.6762 55.6184C50.6768 56.1038 53.6429 56.8235 54.5498 56.1796C55.4015 52.6658 56.2488 51.4456 56.8148 50.6306C57.0434 50.3014 57.164 50.1277 57.2207 49.8821C55.7372 48.7272 54.8805 47.8842 55.0626 46.8193C55.2336 45.8188 56.2187 45.3465 57.4631 44.9195L57.4868 40.8907C57.4883 40.6369 57.578 40.3915 57.7405 40.1966C57.9031 40.0017 58.1284 39.8694 58.3778 39.8223L60.9414 39.3388ZM18.1161 33.9529L15.1954 35.6393C14.9868 35.7597 14.8237 35.9456 14.7315 36.1682C14.6394 36.3908 14.6233 36.6376 14.6858 36.8702C14.7482 37.1029 14.8857 37.3084 15.077 37.4549C15.2682 37.6014 15.5025 37.6807 15.7434 37.6804C15.9351 37.6803 16.1234 37.6297 16.2893 37.5337L19.21 35.8472C19.4612 35.7022 19.6445 35.4633 19.7196 35.1831C19.7947 34.9029 19.7554 34.6044 19.6103 34.3532C19.4652 34.102 19.2263 33.9187 18.9461 33.8437C18.6659 33.7686 18.3674 33.8079 18.1161 33.9529ZM52.5635 25.654H49.1909C48.9009 25.654 48.6227 25.7693 48.4175 25.9744C48.2124 26.1795 48.0972 26.4577 48.0972 26.7478C48.0972 27.0379 48.2124 27.3161 48.4175 27.5212C48.6227 27.7263 48.9009 27.8415 49.1909 27.8415H52.5635C52.8536 27.8415 53.1318 27.7263 53.3369 27.5212C53.542 27.3161 53.6573 27.0379 53.6573 26.7478C53.6573 26.4577 53.542 26.1795 53.3369 25.9744C53.1318 25.7693 52.8536 25.654 52.5635 25.654ZM17.5687 26.7338C17.5687 26.4438 17.4535 26.1656 17.2484 25.9604C17.0432 25.7553 16.765 25.6401 16.475 25.6401H13.1024C12.8123 25.6401 12.5341 25.7553 12.329 25.9604C12.1239 26.1656 12.0086 26.4438 12.0086 26.7338C12.0086 27.0239 12.1239 27.3021 12.329 27.5072C12.5341 27.7124 12.8123 27.8276 13.1024 27.8276H16.475C16.765 27.8276 17.0432 27.7124 17.2484 27.5072C17.4535 27.3021 17.5687 27.0239 17.5687 26.7338ZM15.1954 17.8287L18.1161 19.515C18.2405 19.5868 18.3778 19.6335 18.5203 19.6523C18.6627 19.671 18.8074 19.6616 18.9462 19.6244C19.0849 19.5872 19.215 19.5231 19.329 19.4356C19.4429 19.3481 19.5385 19.2391 19.6103 19.1146C19.7554 18.8634 19.7947 18.5649 19.7196 18.2847C19.6445 18.0045 19.4612 17.7656 19.21 17.6206L16.2893 15.9343C16.0381 15.7893 15.7396 15.75 15.4594 15.825C15.1792 15.9001 14.9403 16.0834 14.7952 16.3346C14.7234 16.459 14.6768 16.5963 14.658 16.7387C14.6392 16.8811 14.6487 17.0258 14.6859 17.1645C14.723 17.3033 14.7871 17.4333 14.8746 17.5473C14.962 17.6612 15.071 17.7569 15.1954 17.8287Z"></path></svg>