<svg xmlns="http://www.w3.org/2000/svg" width="55" height="55" viewBox="0 0 55 55"><path fill-rule="evenodd" clip-rule="evenodd" d="M40.3529 18.8065H36.6219C36.2011 17.6553 35.6934 16.5764 35.1044 15.5956C34.5188 14.6214 33.8741 13.7763 33.1816 13.0671C36.1109 14.2194 38.6071 16.238 40.3529 18.8065ZM33.1816 41.9324C33.8741 41.2231 34.5188 40.3781 35.1044 39.4039C35.6934 38.423 36.2011 37.3442 36.6219 36.1929H40.3529C38.6071 38.7615 36.1109 40.78 33.1816 41.9324ZM14.6985 36.1929H18.4295C18.8503 37.3442 19.358 38.423 19.947 39.4039C20.5326 40.3781 21.1773 41.2231 21.8698 41.9324C18.9405 40.78 16.4443 38.7615 14.6985 36.1929ZM21.8698 13.0671C21.1773 13.7763 20.5326 14.6214 19.947 15.5956C19.358 16.5764 18.8503 17.6553 18.4295 18.8065H14.6985C16.4443 16.238 18.9405 14.2194 21.8698 13.0671ZM28.3051 18.8065H34.9552C34.6123 17.9492 34.2159 17.1431 33.7684 16.3983C32.2553 13.881 30.3392 12.3679 28.3051 12.0595V18.8065ZM36.5162 26.7204H28.3051V20.3652H35.5019C36.102 22.3214 36.4505 24.4758 36.5162 26.7204ZM38.0749 28.2791H43.0071C42.8936 30.5615 42.2834 32.7148 41.2836 34.6342H37.1274C37.6897 32.6546 38.0125 30.5036 38.0749 28.2791ZM28.3051 34.6342V28.2791H36.5162C36.4505 30.5236 36.102 32.678 35.5019 34.6342H28.3051ZM28.3051 42.94C30.3392 42.6316 32.2553 41.1185 33.7684 38.6012C34.2159 37.8563 34.6123 37.0502 34.9552 36.1929H28.3051V42.94ZM26.7463 36.1929H20.0962C20.4391 37.0502 20.8354 37.8563 21.283 38.6012C22.7961 41.1185 24.7122 42.6316 26.7463 42.94V36.1929ZM18.5352 28.2791H26.7463V34.6342H19.5495C18.9494 32.678 18.6009 30.5236 18.5352 28.2791ZM16.9765 26.7204H12.0443C12.1578 24.438 12.768 22.2847 13.7678 20.3652H17.924C17.3617 22.3448 17.0389 24.4958 16.9765 26.7204ZM20.0962 18.8065H26.7463V12.0595C24.7122 12.3679 22.7961 13.881 21.283 16.3983C20.8354 17.1431 20.4391 17.9492 20.0962 18.8065ZM26.7463 20.3652V26.7204H18.5352C18.6009 24.4758 18.9494 22.3214 19.5495 20.3652H26.7463ZM12.0443 28.2791H16.9765C17.0389 30.5036 17.3617 32.6546 17.924 34.6342H13.7678C12.7413 32.6651 12.1533 30.497 12.0443 28.2791ZM43.0071 26.7204H38.0749C38.0125 24.4958 37.6897 22.3448 37.1274 20.3652H41.2836C42.3101 22.3344 42.8981 24.5024 43.0071 26.7204ZM10.4666 27.4997C10.4666 36.9066 18.1188 44.5588 27.5257 44.5588C36.9326 44.5588 44.5848 36.9066 44.5848 27.4997C44.5848 18.0928 36.9326 10.4406 27.5257 10.4406C18.1188 10.4406 10.4666 18.0928 10.4666 27.4997ZM48.7944 29.0451V11.1254C41.1255 10.4239 34.1547 7.36774 27.5257 1.802C20.8967 7.36774 13.9259 10.4239 6.25696 11.1254V29.0451C6.25696 36.272 8.99252 42.4278 14.1664 46.8446C17.8193 49.9631 22.1904 52.1153 27.5257 53.419C32.861 52.1153 37.2321 49.9631 40.885 46.8446C46.06 42.4278 48.7944 36.272 48.7944 29.0451ZM49.6295 9.63011C41.8236 9.06897 34.7593 5.98048 28.0345 0.188725C27.893 0.0669613 27.7124 0 27.5257 0C27.339 0 27.1584 0.0669613 27.0169 0.188725C20.2921 5.98048 13.2278 9.06897 5.42193 9.63011C5.22541 9.64419 5.04152 9.73217 4.90725 9.87635C4.77298 10.0205 4.6983 10.2102 4.69824 10.4072V29.0451C4.69824 36.7429 7.62196 43.3074 13.1543 48.0303C17.04 51.3481 21.6816 53.6205 27.3442 54.9788C27.4032 54.9933 27.4645 55 27.5257 55C27.5869 55 27.6482 54.9933 27.7072 54.9788C33.3698 53.6205 38.0114 51.3481 41.8971 48.0303C47.4294 43.3074 50.3531 36.7429 50.3531 29.0451V10.4072C50.3531 10.2102 50.2784 10.0205 50.1441 9.87635C50.0099 9.73217 49.826 9.64419 49.6295 9.63011Z"></path></svg>