<svg xmlns="http://www.w3.org/2000/svg" width="33" height="33" viewBox="0 0 33 33"><g><path fill-rule="evenodd" clip-rule="evenodd" d="M32.9891 1.18398C33.0171 0.995671 32.9925 0.803292 32.918 0.628097C32.8435 0.452902 32.722 0.301711 32.567 0.191227C32.4121 0.0808885 32.2296 0.0155543 32.0399 0.00245033C31.8501 -0.0106536 31.6604 0.0289832 31.4918 0.116977L0.554265 16.2732C0.376261 16.3673 0.229594 16.5113 0.132265 16.6876C0.0349358 16.8638 -0.00882138 17.0646 0.00636356 17.2654C0.0215485 17.4662 0.0950149 17.6581 0.217747 17.8177C0.340478 17.9773 0.507135 18.0976 0.697265 18.1639L9.29789 21.1036L27.6143 5.44235L13.4408 22.5185L27.8549 27.4451C27.9979 27.4932 28.1497 27.5094 28.2997 27.4926C28.4496 27.4758 28.5941 27.4265 28.723 27.348C28.8519 27.2696 28.962 27.1639 29.0458 27.0384C29.1296 26.9129 29.1849 26.7706 29.2079 26.6215L32.9891 1.18398ZM28.2196 26.469C28.2195 26.4693 28.2196 26.4688 28.2196 26.469L32 1.03696C32.0009 1.03102 32.0001 1.02494 31.9978 1.0194M28.2196 26.469C28.2187 26.4738 28.2167 26.4792 28.214 26.4833C28.2112 26.4876 28.2074 26.4912 28.203 26.4939C28.1986 26.4965 28.1937 26.4982 28.1885 26.4988C28.1837 26.4993 28.1788 26.4989 28.1741 26.4974C28.1739 26.4973 28.1744 26.4975 28.1741 26.4974L15.1365 22.0413L28.3837 6.08103L26.9644 4.68231L9.08156 19.9729L1.02623 17.2195C1.02595 17.2194 1.02651 17.2196 1.02623 17.2195C1.02033 17.2173 1.01432 17.2131 1.01047 17.2081C1.00643 17.2029 1.00401 17.1966 1.00352 17.19C1.00302 17.1834 1.00445 17.1768 1.00766 17.171C1.01073 17.1654 1.01531 17.1608 1.02086 17.1577C1.02064 17.1578 1.02109 17.1576 1.02086 17.1577L31.9544 1.00355C31.9543 1.00357 31.9544 1.00352 31.9544 1.00355C31.9594 1.00093 31.9653 0.999681 31.971 1.00007M13.0314 30.5897C13.0316 30.5963 13.0337 30.6027 13.0376 30.6081C13.0417 30.6136 13.0473 30.6177 13.0538 30.6199C13.0603 30.622 13.0674 30.622 13.0739 30.6199C13.0802 30.6179 13.0857 30.6141 13.0898 30.6089C13.0896 30.6091 13.0899 30.6087 13.0898 30.6089L16.011 26.6335L13.0314 25.6152V30.5897ZM12.0314 24.2166V30.5939C12.0324 30.8106 12.1017 31.0215 12.2292 31.1967C12.3568 31.3719 12.5363 31.5025 12.7422 31.5701C12.9482 31.6376 13.1702 31.6386 13.3767 31.573C13.5833 31.5073 13.764 31.3784 13.8931 31.2044L17.6235 26.1279L12.0314 24.2166Z"></path></g></svg>