<svg xmlns="http://www.w3.org/2000/svg" width="14" height="18" viewBox="0 0 14 18">
                                            <path d="M11.8603 10.0575C11.249 11.2522 10.4207 12.4425 9.57367 13.5113C8.77018 14.5188 7.91105 15.484 7 16.4025C6.08893 15.484 5.2298 14.5188 4.42633 13.5113C3.57933 12.4425 2.751 11.2522 2.13967 10.0575C1.52133 8.85037 1.16667 7.71975 1.16667 6.75C1.16667 5.25816 1.78125 3.82742 2.87521 2.77252C3.96917 1.71763 5.4529 1.125 7 1.125C8.5471 1.125 10.0308 1.71763 11.1248 2.77252C12.2188 3.82742 12.8333 5.25816 12.8333 6.75C12.8333 7.71975 12.4775 8.85037 11.8603 10.0575ZM7 18C7 18 14 11.6033 14 6.75C14 4.95979 13.2625 3.2429 11.9497 1.97703C10.637 0.711159 8.85652 0 7 0C5.14348 0 3.36301 0.711159 2.05025 1.97703C0.737498 3.2429 2.76642e-08 4.95979 0 6.75C0 11.6033 7 18 7 18Z"></path>
                                            <path d="M7 9C6.38116 9 5.78767 8.76295 5.35008 8.34099C4.9125 7.91903 4.66667 7.34674 4.66667 6.75C4.66667 6.15326 4.9125 5.58097 5.35008 5.15901C5.78767 4.73705 6.38116 4.5 7 4.5C7.61884 4.5 8.21233 4.73705 8.64992 5.15901C9.0875 5.58097 9.33333 6.15326 9.33333 6.75C9.33333 7.34674 9.0875 7.91903 8.64992 8.34099C8.21233 8.76295 7.61884 9 7 9ZM7 10.125C7.92826 10.125 8.8185 9.76942 9.47487 9.13649C10.1313 8.50355 10.5 7.64511 10.5 6.75C10.5 5.85489 10.1313 4.99645 9.47487 4.36351C8.8185 3.73058 7.92826 3.375 7 3.375C6.07174 3.375 5.1815 3.73058 4.52513 4.36351C3.86875 4.99645 3.5 5.85489 3.5 6.75C3.5 7.64511 3.86875 8.50355 4.52513 9.13649C5.1815 9.76942 6.07174 10.125 7 10.125V10.125Z"></path>
                                        </svg>